<?xml version="1.0" encoding="utf-8"?>
<!-- Generator: Adobe Illustrator 21.1.0, SVG Export Plug-In . SVG Version: 6.00 Build 0)  -->
<svg version="1.1" id="Layer_1" xmlns="http://www.w3.org/2000/svg" xmlns:xlink="http://www.w3.org/1999/xlink" x="0px" y="0px"
	 viewBox="0 0 188.3 188.3" style="enable-background:new 0 0 188.3 188.3;" xml:space="preserve">
<style type="text/css">
	.st0{fill:none;}
	.st1{fill:#FFFFFF;}
</style>
<title>x</title>
<line class="st0" x1="29.9" y1="29.9" x2="158.4" y2="158.4"/>
<path class="st1" d="M8.6,51.1l43.4,43.4l69.2,69.2l15.9,15.9c11.1,11.1,31.5,11.9,42.4,0s11.9-30.6,0-42.4l-43.4-43.4L67,24.6
	L51.1,8.7C40-2.4,19.6-3.3,8.7,8.7S-3.2,39.2,8.6,51.1L8.6,51.1z"/>
<line class="st0" x1="158.4" y1="29.9" x2="29.9" y2="158.4"/>
<path class="st1" d="M137.2,8.6L93.7,52.1l-69.2,69.2L8.6,137.2c-11.1,11.1-11.9,31.5,0,42.4s30.6,11.9,42.4,0l43.4-43.4L163.7,67
	l15.9-15.9c11.1-11.1,11.9-31.5,0-42.4S149.1-3.2,137.2,8.6L137.2,8.6z"/>
</svg>