<?xml version="1.0" encoding="utf-8"?>
<!-- Generator: Adobe Illustrator 21.1.0, SVG Export Plug-In . SVG Version: 6.00 Build 0)  -->
<svg version="1.1" id="Layer_1" xmlns="http://www.w3.org/2000/svg" xmlns:xlink="http://www.w3.org/1999/xlink" x="0px" y="0px"
	 viewBox="0 0 222.8 187.4" style="enable-background:new 0 0 222.8 187.4;" xml:space="preserve">
<style type="text/css">
	.st0{fill:#FFFFFF;stroke:#000000;stroke-width:13;stroke-miterlimit:10;}
	.st1{fill:none;stroke:#000000;stroke-width:13;stroke-miterlimit:10;}
</style>
<title>or</title>
<path class="st0" d="M165,205.9"/>
<path class="st1" d="M22.7,3.7"/>
<path class="st1" d="M22.6,176.9"/>
<path class="st0" d="M200.9,94.4"/>
<g>
	<g>
		<path d="M151,101.4l52.4-33.9L19.3,1.7l65.8,184.1l33.9-52.4l26.6,26.6c4.3,4.3,9.9,6.6,16,6.6c0,0,0,0,0,0c6,0,11.7-2.4,16-6.6
			c8.8-8.8,8.8-23.1,0-32L151,101.4z M167,149.3c-1.4,1.4-3.3,2.2-5.3,2.2h0c-2,0-3.9-0.8-5.3-2.2l-39.8-39.8L89.1,152L44.2,26.6
			l125.4,44.8l-42.4,27.5l39.8,39.8C170,141.6,170,146.4,167,149.3z"/>
	</g>
</g>
</svg>
