<?xml version="1.0" encoding="iso-8859-1"?>
<!-- Generator: Adobe Illustrator 19.0.0, SVG Export Plug-In . SVG Version: 6.00 Build 0)  -->
<svg version="1.1" id="Layer_1" xmlns="http://www.w3.org/2000/svg" xmlns:xlink="http://www.w3.org/1999/xlink" x="0px" y="0px"
	 viewBox="0 0 512 512" style="enable-background:new 0 0 512 512;" xml:space="preserve">
<g>
	<g>
		<path d="M366.26,277.388L512,183.086L0,0l183.086,512l94.303-145.74l74.075,74.075c11.867,11.867,27.648,18.404,44.433,18.406
			c0.003,0,0.003,0,0.006,0c16.784,0,32.563-6.536,44.433-18.406c24.501-24.503,24.501-64.371,0-88.872L366.26,277.388z
			 M410.713,410.712c-3.956,3.958-9.215,6.136-14.808,6.136h-0.003c-5.597,0-10.858-2.18-14.814-6.135l-110.72-110.721
			l-76.388,118.053L69.258,69.258l348.786,124.722l-118.053,76.388l110.72,110.72C418.88,389.255,418.88,402.545,410.713,410.712z"
			/>
	</g>
</g>
<g>
</g>
<g>
</g>
<g>
</g>
<g>
</g>
<g>
</g>
<g>
</g>
<g>
</g>
<g>
</g>
<g>
</g>
<g>
</g>
<g>
</g>
<g>
</g>
<g>
</g>
<g>
</g>
<g>
</g>
</svg>
