<?xml version="1.0" encoding="UTF-8" standalone="no"?>
<!-- Created with Inkscape (http://www.inkscape.org/) -->

<svg
   xmlns:dc="http://purl.org/dc/elements/1.1/"
   xmlns:cc="http://creativecommons.org/ns#"
   xmlns:rdf="http://www.w3.org/1999/02/22-rdf-syntax-ns#"
   xmlns:svg="http://www.w3.org/2000/svg"
   xmlns="http://www.w3.org/2000/svg"
   version="1.0"
   width="89.96875"
   height="44.8125"
   id="svg2">
  <defs
     id="defs4">
    <marker
       refX="0"
       refY="0"
       orient="auto"
       id="TriangleInL"
       style="overflow:visible">
      <path
         d="m 5.77,0 -8.65,5 0,-10 8.65,5 z"
         transform="scale(-0.8,-0.8)"
         id="path3928"
         style="fill-rule:evenodd;stroke:#000000;stroke-width:1pt" />
    </marker>
  </defs>
  <metadata
     id="metadata7">
    <rdf:RDF>
      <cc:Work
         rdf:about="">
        <dc:format>image/svg+xml</dc:format>
        <dc:type
           rdf:resource="http://purl.org/dc/dcmitype/StillImage" />
        <dc:title></dc:title>
      </cc:Work>
    </rdf:RDF>
  </metadata>
  <g
     transform="translate(3.969376,-80.09375)"
     id="layer1">
    <g
       transform="translate(-11.000626,2.90625)"
       id="g4549">
      <g
         id="g4540">
        <g
           id="g4532">
          <path
             d="m 81.15691,99.59375 15.84309,0"
             id="path3059-53"
             style="fill:none;stroke:#000000;stroke-width:1.99999988;stroke-linecap:butt;stroke-linejoin:miter;stroke-opacity:1" />
          <path
             d="m 31.04348,99.59375 -24,0"
             id="path3061-3"
             style="fill:none;stroke:#000000;stroke-width:2;stroke-linecap:butt;stroke-linejoin:miter;stroke-opacity:1" />
          <path
             d="m 34.434572,99.398938 0,-16.587818 9.369165,4.462116 c 14.068925,6.700402 24.574072,12.020205 24.554705,12.434493 -0.01947,0.416421 -32.56976,16.287681 -33.39354,16.282411 -0.291681,-0.002 -0.53033,-7.4679 -0.53033,-16.591202 z"
             id="path3144"
             style="fill:#aaeeff;fill-opacity:0;fill-rule:evenodd;stroke:#aaeeff;stroke-width:1;stroke-linejoin:miter;stroke-miterlimit:4;stroke-opacity:1;stroke-dasharray:none;stroke-dashoffset:0" />
          <path
             d="m 75.446766,100.78396 c -0.702289,-0.846205 -0.702289,-1.275114 0,-2.12132 1.132262,-1.364292 2.758008,-1.359833 3.283281,0.009 0.406319,1.058851 -0.839024,3.17298 -1.869068,3.17298 -0.293669,0 -0.930065,-0.4773 -1.414213,-1.06066 z"
             id="path3146"
             style="fill:#aaeeff;fill-opacity:0;fill-rule:evenodd;stroke:#aaeeff;stroke-width:1;stroke-linejoin:miter;stroke-miterlimit:4;stroke-opacity:1;stroke-dasharray:none;stroke-dashoffset:0" />
          <path
             d="m 30.96875,77.1875 0,2.40625 0,40 0,2.40625 2.15625,-1.0625 41.03125,-20 0,-2.6875 -41.03125,-20 -2.15625,-1.0625 z m 3,4.8125 36.125,17.59375 -36.125,17.59375 0,-35.1875 z"
             id="path2638-9"
             style="fill:#000000;fill-opacity:1;stroke:none;stroke-width:3;marker:none;visibility:visible;display:inline;overflow:visible;enable-background:accumulate" />
          <path
             d="m 80,25 a 4,4 0 1 1 -8,0 4,4 0 1 1 8,0 z"
             transform="translate(1,74.59375)"
             id="path2671"
             style="fill:none;stroke:#000000;stroke-width:3;stroke-linejoin:miter;stroke-opacity:1;marker:none;visibility:visible;display:inline;overflow:visible;enable-background:accumulate" />
        </g>
      </g>
    </g>
  </g>
</svg>
