<svg id="Layer_1" data-name="Layer 1" xmlns="http://www.w3.org/2000/svg" width="222.78" height="187.43" viewBox="0 0 222.78 187.43"><defs><style>.cls-1,.cls-3{fill:#fff;}.cls-1,.cls-2,.cls-3{stroke:#000;stroke-miterlimit:10;}.cls-1,.cls-2{stroke-width:13px;}.cls-2{fill:none;}.cls-3{stroke-width:20px;}</style></defs><title>or</title><path class="cls-1" d="M199,210" transform="translate(-33.99 -4.11)"/><path class="cls-1" d="M199-15" transform="translate(-33.99 -4.11)"/><path class="cls-2" d="M57.7,6.5" transform="translate(-33.99 -4.11)"/><path class="cls-2" d="M57.7,189" transform="translate(-33.99 -4.11)"/><path class="cls-3" d="M246.33,97.53c-36.91-76.37-161-83.2-200-83.42A2.26,2.26,0,0,0,45,18.23C60.25,29,76.24,60.39,76.24,97.53h0c0,37.27-16,69.19-31.31,80a2.21,2.21,0,0,0,1.28,4c38.84-.34,163.14-7.54,200.11-84" transform="translate(-33.99 -4.11)"/><polygon points="221.23 88.68 222.78 93.44 221.23 98.1 209.9 93.44 221.23 88.68"/></svg>