<?xml version="1.0" encoding="utf-8"?>
<!-- Generator: Adobe Illustrator 21.1.0, SVG Export Plug-In . SVG Version: 6.00 Build 0)  -->
<svg version="1.1" id="Layer_1" xmlns="http://www.w3.org/2000/svg" xmlns:xlink="http://www.w3.org/1999/xlink" x="0px" y="0px"
	 viewBox="0 0 894.1 176.8" style="enable-background:new 0 0 894.1 176.8;" xml:space="preserve">
<style type="text/css">
	.st0{fill:#6B6B6B;}
	.st1{fill:#209D6A;}
	.st2{fill:none;}
	.st3{fill:#FFFFFF;}
</style>
<title>logo</title>
<g id="Layer_2">
	<path class="st0" d="M227.8,1l31.6-0.4L291,0.4c21.1-0.1,42.1-0.3,63.2-0.3L417.4,0l63.2,0.1h0.9V1l-0.3,46.3l-0.6-0.6l29.2,0.2
		l29.2,0.3l-29.2,0.3l-29.2,0.2h-0.5v-0.6L479.8,1l0.8,0.9l-63.2,0.1l-63.2-0.1c-21.1,0-42.1-0.2-63.2-0.3l-31.6-0.3L227.8,1z"/>
	<path class="st0" d="M225.2,51.2l25.9-0.4c8.7-0.1,17.3-0.2,25.9-0.3c17.3-0.1,34.6-0.3,51.9-0.3l51.9-0.1l51.9,0.1l-0.9,0.9
		l0.3-39.6v-0.6h0.6c8,0,16,0.1,24,0.2l24,0.3l-24,0.3c-8,0.1-16,0.2-24,0.2l0.6-0.6l0.3,39.6v0.9h-0.9l-51.9,0.1l-51.9-0.1
		c-17.3,0-34.6-0.2-51.9-0.3c-8.7-0.1-17.3-0.1-25.9-0.3L225.2,51.2z"/>
	<path class="st0" d="M261,149.4c19.3-0.3,38.5-0.5,57.8-0.6l28.9-0.2l28.9-0.1c19.3,0,38.5-0.1,57.8,0s38.5,0,57.8,0.2l-0.8,0.8
		l0.2-22.9v-0.6h0.6c8.9,0.1,17.8,0.1,26.7,0.3l26.7,0.3l-26.7,0.3c-8.9,0.1-17.8,0.2-26.7,0.3l0.6-0.6l0.2,22.9v0.8h-0.8
		c-19.3,0.2-38.5,0.1-57.8,0.2s-38.5,0-57.8,0l-28.9-0.1l-28.9-0.2C299.5,149.9,280.2,149.7,261,149.4z"/>
	<path class="st1" d="M31.1,168.6h0.1c-1.1-0.9-2.2-1.8-3.2-2.7l0,0L31.1,168.6z"/>
	<path class="st2" d="M164.2,118.2c-3.3-3.4-7.9-7.9-13.3-12.5C134.1,91.4,109.8,75.6,95,84.3c-25.5,14.9-64.8,20.3-81.4,22
		c0.8,5.3,2.1,10.5,4,15.5l3.5-0.5l1.2-0.2l2.6-0.4l1.6-0.3L29,120l1.8-0.3l2.6-0.5l1.8-0.3l2.7-0.5l1.9-0.5l3-0.7l1.7-0.4
		c1.4-0.3,2.9-0.7,4.3-1l0.4-0.1c1.6-0.4,3.1-0.8,4.7-1.3l1.6-0.5c1.1-0.3,2.1-0.6,3.2-0.9l1.8-0.6c1-0.3,1.9-0.6,2.9-0.9l1.9-0.7
		c0.9-0.3,1.8-0.7,2.8-1l1.8-0.7c0.9-0.4,1.8-0.7,2.7-1.1l1.7-0.7c1-0.4,1.9-0.9,2.8-1.3c0.5-0.2,0.9-0.4,1.4-0.7
		c1.4-0.7,2.7-1.4,4-2.2c0.8-0.5,1.7-0.9,2.5-1.3c0.3-0.1,0.6-0.3,0.8-0.4c0.6-0.3,1.2-0.5,1.8-0.7l1-0.4c0.5-0.2,1.1-0.4,1.6-0.5
		l1.1-0.3c0.5-0.1,1.1-0.3,1.6-0.4l1.1-0.2c0.6-0.1,1.1-0.2,1.7-0.3l1.1-0.1c0.6-0.1,1.2-0.1,1.8-0.1l0.9,0c0.8,0,1.6,0,2.4,0h0.3
		c0.9,0,1.8,0.1,2.8,0.2l0.8,0.1c0.6,0.1,1.3,0.1,1.9,0.3l1.1,0.2c0.6,0.1,1.2,0.2,1.7,0.3l1.1,0.3l1.7,0.4l1.1,0.3l1.7,0.5l1.1,0.3
		c0.6,0.2,1.2,0.4,1.8,0.6l1,0.4c0.7,0.3,1.4,0.6,2.2,0.9l0.6,0.2c0.9,0.4,1.8,0.8,2.8,1.2l0.8,0.4c0.7,0.3,1.3,0.6,2,1l1,0.5
		l1.7,0.9l1.1,0.6l1.6,0.9l1.1,0.7l1.6,1l1.1,0.7l1.6,1l1,0.6l1.9,1.2l0.7,0.5c0.8,0.6,1.7,1.2,2.5,1.8l0.6,0.5l1.9,1.4l0.9,0.7
		l1.5,1.1l1,0.8l1.4,1.1l1,0.8l1.3,1.1l1,0.8l1.3,1.1l0.9,0.8l1.4,1.2l0.8,0.7l0.1,0.1C161.8,125.1,163.1,121.7,164.2,118.2z"/>
	<path class="st2" d="M157.1,55.5C135.3,18.6,87.7,6.4,50.8,28.2c-12.1,7.2-22,17.5-28.7,29.8c17.7-2.2,48.1-7.5,67.7-19
		C111.2,26.6,137.9,40.8,157.1,55.5z"/>
	<path class="st2" d="M161.1,92c2.4,2.1,4.6,4.1,6.7,5.9c0.1-3.4,0-6.9-0.3-10.3c-3.3-3.4-7.9-7.8-13.2-12.4
		c-16.8-14.3-41.2-30.1-55.9-21.5C71.8,69.2,30.5,74.4,15.1,75.9c-1.1,4.4-1.8,8.9-2.2,13.4c15.9-1.7,51.5-6.8,73.5-19.6
		C110.8,55.4,141.8,75.6,161.1,92z"/>
	<path class="st2" d="M146.1,148.6c1.7-1.8,3.4-3.7,4.9-5.6l-0.4-0.4l-0.9-0.8l-1.1-1l-1-0.8l-1.1-1l-1-0.8l-1.1-1l-0.9-0.8l-1.2-1
		l-0.9-0.7l-1.3-1l-0.8-0.6l-1.6-1.1l-0.4-0.3l-2.1-1.6l-0.6-0.4l-1.5-1.1l-0.8-0.5l-1.4-0.9l-0.9-0.6l-1.3-0.8l-0.9-0.6l-1.2-0.8
		l-0.9-0.5l-1.2-0.7l-0.9-0.5l-1.2-0.7l-0.9-0.5l-1.2-0.6l-0.9-0.4l-1.2-0.6l-0.9-0.4l-1.3-0.5l-0.8-0.3l-1.5-0.6l-0.5-0.2
		c-0.7-0.2-1.3-0.5-2-0.7l-0.4-0.1c-0.5-0.2-1.1-0.3-1.6-0.5l-0.7-0.2l-1.3-0.3l-0.8-0.2l-1.1-0.2l-0.8-0.1l-1.1-0.1l-0.8-0.1l-1,0
		h-0.8h-1H99l-1,0.1l-0.7,0.1c-0.3,0-0.6,0.1-1,0.2l-0.7,0.2c-0.3,0.1-0.6,0.2-1,0.3l-0.6,0.2c-0.4,0.1-0.7,0.3-1,0.4l-0.5,0.2
		c-0.5,0.2-1,0.5-1.5,0.8c-1.4,0.8-2.8,1.5-4.2,2.3l-1.4,0.7c-1,0.5-2,1-3,1.5l-1.6,0.7c-1,0.5-2.1,0.9-3.1,1.3l-1.6,0.7
		c-1.3,0.5-2.7,1-4,1.5l-0.7,0.3c-1.6,0.6-3.2,1.1-4.8,1.6l-1.5,0.5c-1.1,0.4-2.3,0.7-3.4,1.1l-1.8,0.5l-3.3,0.9l-1.7,0.5
		c-1.2,0.3-2.5,0.6-3.7,0.9l-1.2,0.3c-1.6,0.4-3.2,0.8-4.8,1.1l-1.3,0.3l-3.5,0.7l-1.7,0.3l-3.1,0.6l-1.6,0.3l-3.2,0.6l-1.2,0.2
		l-4.1,0.7c3,4.6,6.5,8.8,10.5,12.6l0.3-0.1c2.1-0.5,4.3-0.9,6.3-1.4l0,0c2-0.5,4-1,6-1.5l0.5-0.1c1.8-0.5,3.6-1,5.4-1.5l0.7-0.2
		c1.7-0.5,3.3-1.1,4.9-1.6l0.8-0.3c1.6-0.5,3.1-1.1,4.6-1.7l0.7-0.3c1.5-0.6,2.9-1.2,4.3-1.8l0.6-0.3c1.4-0.6,2.7-1.3,4-1.9l0.4-0.2
		c1.3-0.7,2.6-1.4,3.8-2.1l0,0h0.1c1-0.6,2.1-1.2,3.2-1.7c0.4-0.2,0.8-0.3,1.2-0.5c0.8-0.3,1.5-0.6,2.3-0.9c0.5-0.2,0.9-0.3,1.4-0.4
		c0.7-0.2,1.4-0.4,2.2-0.5c0.5-0.1,1-0.2,1.6-0.3c0.7-0.1,1.4-0.2,2.2-0.3c0.6-0.1,1.1-0.1,1.7-0.1c0.7,0,1.5-0.1,2.2-0.1
		c0.6,0,1.2,0,1.7,0c0.8,0,1.5,0.1,2.3,0.1c0.6,0,1.2,0.1,1.8,0.2c0.8,0.1,1.5,0.2,2.3,0.3c0.6,0.1,1.2,0.2,1.9,0.3
		c0.8,0.2,1.6,0.3,2.4,0.6c0.6,0.2,1.3,0.3,1.9,0.5c0.8,0.2,1.6,0.5,2.5,0.8c0.6,0.2,1.3,0.4,1.9,0.7c0.9,0.3,1.7,0.7,2.6,1
		c0.6,0.3,1.3,0.5,1.9,0.8c0.9,0.4,1.8,0.8,2.7,1.3c0.6,0.3,1.3,0.6,1.9,0.9c1,0.5,1.9,1,2.9,1.5c0.6,0.3,1.2,0.6,1.8,1
		c1.1,0.6,2.2,1.3,3.4,2c0.5,0.3,1,0.6,1.5,0.9c1.6,1,3.3,2.1,4.9,3.3l0.4,0.3c1.5,1,2.9,2.1,4.4,3.2
		C145,149.8,145.6,149.2,146.1,148.6z"/>
	<path class="st2" d="M128.1,159.5l-0.2-0.1c-0.7-0.5-1.4-0.9-2.2-1.4l-0.5-0.3c-0.8-0.5-1.5-0.9-2.3-1.4l-0.4-0.3
		c-0.7-0.4-1.4-0.8-2.2-1.2l-0.4-0.2c-0.8-0.4-1.6-0.9-2.4-1.3l-0.6-0.3c-0.8-0.4-1.7-0.8-2.5-1.2l-0.1-0.1c-0.8-0.4-1.6-0.7-2.4-1
		l-0.5-0.2c-0.8-0.3-1.6-0.6-2.5-0.9l-0.4-0.1c-0.8-0.2-1.5-0.5-2.3-0.7l-0.4-0.1c-0.8-0.2-1.6-0.4-2.4-0.5l-0.5-0.1
		c-0.8-0.2-1.6-0.3-2.4-0.3h-0.1c-0.8-0.1-1.6-0.1-2.3-0.1h-0.5c-0.8,0-1.5,0-2.3,0.1l-0.4,0c-0.7,0.1-1.3,0.2-2,0.3l-0.4,0.1
		c-0.7,0.2-1.4,0.4-2.1,0.7L90,149c-0.7,0.3-1.4,0.6-2,1c-1,0.6-2,1.2-3.1,1.7l-0.9,0.5c-0.8,0.4-1.7,0.9-2.6,1.3l-0.8,0.4
		c-1.1,0.5-2.3,1.1-3.4,1.6l-0.8,0.3c-1,0.4-1.9,0.8-2.9,1.2l-1.1,0.4c-1.2,0.5-2.4,0.9-3.6,1.4l-0.3,0.1c-1.3,0.5-2.7,0.9-4,1.4
		l-1.2,0.4c-1.1,0.4-2.2,0.7-3.3,1l-1.1,0.3c-1.4,0.4-2.9,0.8-4.4,1.3l-0.2,0.1c24.1,12.9,53.2,12,76.5-2.3l-0.3-0.2
		C129.6,160.5,128.8,160,128.1,159.5z"/>
	<path class="st1" d="M79.3,135.4L79.3,135.4L79.3,135.4L79.3,135.4z"/>
	<path class="st1" d="M93.4,130.9c0.6-0.1,1.1-0.1,1.7-0.1C94.5,130.8,94,130.8,93.4,130.9z"/>
	<path class="st1" d="M120.2,154.7c0.7,0.4,1.5,0.8,2.2,1.2C121.7,155.5,121,155.1,120.2,154.7z"/>
	<path class="st1" d="M128.1,159.5c0.8,0.5,1.5,1,2.2,1.5C129.6,160.5,128.8,160,128.1,159.5z"/>
	<path class="st1" d="M140.1,147.1l-0.4-0.3L140.1,147.1z"/>
	<path class="st1" d="M122.9,156.2c0.8,0.5,1.6,0.9,2.3,1.4C124.5,157.1,123.7,156.7,122.9,156.2z"/>
	<path class="st1" d="M125.7,158c0.7,0.5,1.5,0.9,2.2,1.4C127.2,158.9,126.5,158.4,125.7,158z"/>
	<path class="st1" d="M114.4,151.8c0.8,0.4,1.7,0.8,2.5,1.2C116.1,152.5,115.3,152.2,114.4,151.8z"/>
	<path class="st1" d="M100.4,147.7c0.8,0.1,1.6,0.2,2.4,0.3C102.1,147.9,101.2,147.8,100.4,147.7z"/>
	<path class="st1" d="M98,147.5c0.8,0,1.5,0,2.3,0.1C99.6,147.6,98.8,147.6,98,147.5z"/>
	<path class="st1" d="M95.2,147.7c0.8-0.1,1.5-0.1,2.3-0.1C96.7,147.5,96,147.6,95.2,147.7z"/>
	<path class="st1" d="M117.5,153.2c0.8,0.4,1.6,0.8,2.4,1.3C119.1,154.1,118.3,153.7,117.5,153.2z"/>
	<path class="st1" d="M92.9,148.1c0.7-0.2,1.3-0.3,2-0.3C94.2,147.8,93.5,147.9,92.9,148.1z"/>
	<path class="st1" d="M111.9,150.7c0.8,0.3,1.6,0.7,2.4,1C113.5,151.4,112.7,151,111.9,150.7z"/>
	<path class="st1" d="M108.9,149.6c0.8,0.3,1.6,0.6,2.5,0.9C110.5,150.2,109.7,149.9,108.9,149.6z"/>
	<path class="st1" d="M103.4,148.1c0.8,0.2,1.6,0.3,2.4,0.5C105,148.5,104.2,148.3,103.4,148.1z"/>
	<path class="st1" d="M106.2,148.8c0.7,0.2,1.5,0.4,2.3,0.7C107.7,149.2,106.9,149,106.2,148.8z"/>
	<path class="st1" d="M103.1,131c-0.6-0.1-1.2-0.2-1.8-0.2C101.9,130.9,102.5,130.9,103.1,131z"/>
	<path class="st1" d="M75.5,137.5l-0.4,0.2L75.5,137.5z"/>
	<path class="st1" d="M71.2,139.5l-0.6,0.3L71.2,139.5z"/>
	<path class="st1" d="M83.8,133.2c-0.4,0.2-0.8,0.3-1.2,0.5C83.1,133.5,83.4,133.4,83.8,133.2z"/>
	<path class="st1" d="M134.7,143.6c-0.5-0.3-1-0.6-1.5-0.9C133.7,143,134.2,143.3,134.7,143.6z"/>
	<path class="st1" d="M66.3,141.6l-0.7,0.3L66.3,141.6z"/>
	<path class="st1" d="M49.2,147.2l-0.5,0.1L49.2,147.2z"/>
	<path class="st1" d="M36.1,150.3l0.3-0.1L36.1,150.3z"/>
	<path class="st1" d="M61,143.5l-0.8,0.3L61,143.5z"/>
	<path class="st1" d="M42.7,148.8L42.7,148.8z"/>
	<path class="st1" d="M87.5,132c-0.5,0.1-1,0.2-1.4,0.4C86.6,132.2,87.1,132.1,87.5,132z"/>
	<path class="st1" d="M125.1,138.2c-0.6-0.3-1.3-0.6-1.9-0.9C123.9,137.6,124.5,137.9,125.1,138.2z"/>
	<path class="st1" d="M91.3,131.2c-0.5,0.1-1,0.2-1.6,0.3C90.2,131.3,90.7,131.2,91.3,131.2z"/>
	<path class="st1" d="M116,134.2c-0.6-0.2-1.3-0.5-1.9-0.7C114.7,133.8,115.3,134,116,134.2z"/>
	<path class="st1" d="M129.9,140.7c-0.6-0.3-1.2-0.7-1.8-1C128.7,140,129.3,140.3,129.9,140.7z"/>
	<path class="st1" d="M120.5,136c-0.6-0.3-1.3-0.5-1.9-0.8C119.2,135.5,119.8,135.7,120.5,136z"/>
	<path class="st1" d="M90.4,148.8c0.7-0.3,1.4-0.5,2.1-0.7C91.8,148.3,91.1,148.6,90.4,148.8z"/>
	<path class="st1" d="M99.1,130.7c-0.6,0-1.2,0-1.7,0C97.9,130.6,98.5,130.7,99.1,130.7z"/>
	<path class="st1" d="M111.6,132.8c-0.6-0.2-1.3-0.3-1.9-0.5C110.3,132.4,110.9,132.6,111.6,132.8z"/>
	<path class="st1" d="M107.3,131.7c-0.6-0.1-1.2-0.3-1.9-0.3C106,131.5,106.7,131.6,107.3,131.7z"/>
	<path class="st1" d="M55.3,145.4l-0.7,0.2L55.3,145.4z"/>
	<path class="st1" d="M76.2,155.9l0.8-0.3L76.2,155.9z"/>
	<path class="st1" d="M83.9,152.2l0.9-0.5L83.9,152.2z"/>
	<path class="st1" d="M68.3,159l0.3-0.1L68.3,159z"/>
	<path class="st1" d="M87.9,150c0.6-0.4,1.3-0.7,2-1C89.2,149.3,88.5,149.6,87.9,150z"/>
	<path class="st1" d="M80.5,153.9l0.8-0.4L80.5,153.9z"/>
	<path class="st1" d="M63.1,160.7l1.2-0.4L63.1,160.7z"/>
	<path class="st1" d="M58.7,162.1l1.1-0.3L58.7,162.1z"/>
	<path class="st1" d="M72.2,157.5l1.1-0.4L72.2,157.5z"/>
	<path class="st1" d="M109.7,132.3c-0.8-0.2-1.6-0.4-2.4-0.6C108.1,131.9,108.9,132.1,109.7,132.3z"/>
	<path class="st1" d="M119.2,120.4l0.9,0.4L119.2,120.4z"/>
	<path class="st1" d="M33.2,119.2l-2.6,0.5L33.2,119.2z"/>
	<path class="st1" d="M100.6,115.3L100.6,115.3z"/>
	<path class="st1" d="M28.9,120l-2.5,0.4L28.9,120z"/>
	<path class="st1" d="M123.4,122.6l0.9,0.5L123.4,122.6z"/>
	<path class="st1" d="M68.5,158.9c1.2-0.5,2.4-0.9,3.6-1.4C71,158,69.8,158.4,68.5,158.9z"/>
	<path class="st1" d="M98.9,115.4h0.8H98.9z"/>
	<path class="st1" d="M133.2,142.7c-1.1-0.7-2.3-1.4-3.4-2C131,141.3,132.1,142,133.2,142.7z"/>
	<path class="st1" d="M105.4,131.3c-0.8-0.1-1.6-0.3-2.3-0.3C103.9,131.1,104.6,131.2,105.4,131.3z"/>
	<path class="st1" d="M95.5,115.9l0.7-0.2L95.5,115.9z"/>
	<path class="st1" d="M101.3,130.8c-0.8-0.1-1.5-0.1-2.3-0.1C99.8,130.7,100.5,130.8,101.3,130.8z"/>
	<path class="st1" d="M97.2,115.6l0.7-0.1L97.2,115.6z"/>
	<path class="st1" d="M104.3,115.6l0.8,0.1L104.3,115.6z"/>
	<path class="st1" d="M102.5,115.4l0.8,0.1L102.5,115.4z"/>
	<path class="st1" d="M113,117.8l0.5,0.2L113,117.8z"/>
	<path class="st1" d="M123.2,137.3c-0.9-0.4-1.8-0.9-2.7-1.3C121.4,136.4,122.3,136.8,123.2,137.3z"/>
	<path class="st1" d="M121.3,121.4l0.9,0.5L121.3,121.4z"/>
	<path class="st1" d="M115,118.5l0.8,0.3L115,118.5z"/>
	<path class="st1" d="M128.1,139.7c-1-0.5-2-1.1-2.9-1.5C126.1,138.7,127.1,139.2,128.1,139.7z"/>
	<path class="st1" d="M64.2,160.3c1.4-0.5,2.7-0.9,4-1.4C67,159.4,65.6,159.9,64.2,160.3z"/>
	<path class="st1" d="M117.1,119.4l0.9,0.4L117.1,119.4z"/>
	<path class="st1" d="M42.7,117.3l-3,0.7L42.7,117.3z"/>
	<path class="st1" d="M114.1,133.5c-0.8-0.3-1.7-0.5-2.5-0.8C112.4,133,113.2,133.3,114.1,133.5z"/>
	<path class="st1" d="M106.3,115.9l0.8,0.2L106.3,115.9z"/>
	<path class="st1" d="M108.3,116.4l0.7,0.2L108.3,116.4z"/>
	<path class="st1" d="M118.6,135.2c-0.9-0.3-1.7-0.7-2.6-1C116.8,134.5,117.7,134.9,118.6,135.2z"/>
	<path class="st1" d="M37.8,118.3l-2.8,0.6L37.8,118.3z"/>
	<path class="st1" d="M110.6,117l0.4,0.1L110.6,117z"/>
	<path class="st1" d="M59.7,161.8c1.1-0.3,2.2-0.7,3.3-1C62,161.1,60.8,161.4,59.7,161.8z"/>
	<path class="st1" d="M40.6,135l3.5-0.7L40.6,135z"/>
	<path class="st1" d="M35.8,136l3.1-0.6L35.8,136z"/>
	<path class="st1" d="M70.6,139.8c-1.4,0.6-2.8,1.2-4.3,1.8C67.8,141,69.2,140.4,70.6,139.8z"/>
	<path class="st1" d="M30.9,136.8l3.2-0.6L30.9,136.8z"/>
	<path class="st1" d="M54.3,163.4c1.5-0.4,3-0.8,4.4-1.3C57.2,162.5,55.7,162.9,54.3,163.4z"/>
	<path class="st1" d="M75.2,137.6c-1.3,0.7-2.6,1.3-4,1.9C72.5,138.9,73.9,138.3,75.2,137.6z"/>
	<path class="st1" d="M95.6,98.6l1.1-0.1L95.6,98.6z"/>
	<path class="st1" d="M45.3,134c1.6-0.3,3.2-0.7,4.8-1.1C48.5,133.3,46.9,133.7,45.3,134z"/>
	<path class="st1" d="M65.6,141.9c-1.5,0.6-3,1.1-4.6,1.7C62.6,143,64.1,142.4,65.6,141.9z"/>
	<path class="st1" d="M54.6,145.6c-1.8,0.5-3.5,1-5.4,1.5C51.1,146.7,52.8,146.1,54.6,145.6z"/>
	<path class="st1" d="M48.7,147.3c-1.9,0.5-3.9,1-6,1.5C44.8,148.3,46.8,147.8,48.7,147.3z"/>
	<path class="st1" d="M60.3,143.8c-1.6,0.5-3.3,1.1-4.9,1.6C57,144.9,58.6,144.3,60.3,143.8z"/>
	<path class="st1" d="M42.7,148.8c-2,0.5-4.2,1-6.3,1.4C38.6,149.8,40.7,149.3,42.7,148.8z"/>
	<path class="st3" d="M36.1,150.3c-3.9-3.8-7.4-8.1-10.4-12.6l4.1-0.7c-6.2,1-11.9,1.8-16.5,2.3l-1.5,0.2c2.7,4.8,5.9,9.4,9.5,13.7
		l10.7-2.1C33.3,150.9,34.7,150.6,36.1,150.3z"/>
	<path class="st1" d="M157.1,125.7l0.9,0.8L157.1,125.7z"/>
	<path class="st1" d="M51.3,132.7c1.2-0.3,2.5-0.6,3.7-0.9C53.7,132,52.5,132.4,51.3,132.7z"/>
	<path class="st1" d="M93.9,116.4l0.6-0.2L93.9,116.4z"/>
	<path class="st1" d="M77.6,124.3c1-0.4,2.1-0.9,3.1-1.3C79.7,123.4,78.7,123.8,77.6,124.3z"/>
	<path class="st1" d="M86.7,120c1.4-0.7,2.8-1.5,4.2-2.3C89.6,118.6,88.2,119.3,86.7,120z"/>
	<path class="st1" d="M89.7,131.4c-0.7,0.2-1.4,0.4-2.2,0.5C88.2,131.8,89,131.6,89.7,131.4z"/>
	<path class="st1" d="M17.6,121.7l3.5-0.5L17.6,121.7z"/>
	<path class="st1" d="M82.3,122.2c1-0.5,2-1,3-1.5C84.4,121.2,83.4,121.7,82.3,122.2z"/>
	<path class="st1" d="M97.3,130.6c-0.7,0-1.5,0-2.2,0.1C95.8,130.7,96.5,130.7,97.3,130.6z"/>
	<path class="st1" d="M92.4,117l0.5-0.2L92.4,117z"/>
	<path class="st1" d="M125.5,123.8l0.9,0.5L125.5,123.8z"/>
	<path class="st1" d="M24.8,120.7l-2.6,0.4L24.8,120.7z"/>
	<path class="st1" d="M86.1,132.4c-0.8,0.3-1.5,0.6-2.3,0.9C84.6,132.9,85.3,132.6,86.1,132.4z"/>
	<path class="st1" d="M79.3,135.4c-1.2,0.7-2.5,1.4-3.8,2.1C76.8,136.8,78.1,136.1,79.3,135.4z"/>
	<path class="st1" d="M56.7,131.3l3.3-0.9L56.7,131.3z"/>
	<path class="st1" d="M61.7,129.9c1.2-0.3,2.3-0.7,3.4-1.1C64,129.1,62.9,129.5,61.7,129.9z"/>
	<path class="st1" d="M72.1,126.4c1.3-0.5,2.7-1,4-1.5C74.8,125.4,73.5,125.9,72.1,126.4z"/>
	<path class="st1" d="M66.6,128.3c1.6-0.5,3.2-1.1,4.8-1.6C69.8,127.2,68.3,127.8,66.6,128.3z"/>
	<path class="st1" d="M82.7,133.7c-1.1,0.5-2.2,1-3.2,1.7C80.5,134.7,81.6,134.2,82.7,133.7z"/>
	<path class="st1" d="M97.5,147.5L97.5,147.5z"/>
	<path class="st1" d="M105.8,148.7l0.4,0.1L105.8,148.7z"/>
	<path class="st1" d="M132.1,107.9l-1.1-0.6L132.1,107.9z"/>
	<path class="st1" d="M122.8,103.3l-0.6-0.2L122.8,103.3z"/>
	<path class="st1" d="M134.8,109.5l-1.1-0.7L134.8,109.5z"/>
	<path class="st1" d="M48.7,115.9c-1.4,0.4-2.9,0.7-4.3,1C45.8,116.5,47.2,116.2,48.7,115.9z"/>
	<path class="st1" d="M102.8,148l0.5,0.1L102.8,148z"/>
	<path class="st1" d="M85.8,101.4c-0.3,0.1-0.6,0.2-0.8,0.4C85.2,101.7,85.5,101.5,85.8,101.4z"/>
	<path class="st1" d="M126.3,104.9l-0.8-0.4L126.3,104.9z"/>
	<path class="st1" d="M129.3,106.4l-1-0.5L129.3,106.4z"/>
	<path class="st1" d="M81.3,153.5c0.9-0.4,1.8-0.9,2.6-1.3C83,152.7,82.2,153.1,81.3,153.5z"/>
	<path class="st1" d="M137.5,111.1l-1.1-0.7L137.5,111.1z"/>
	<path class="st1" d="M145.8,116.7l-0.6-0.5L145.8,116.7z"/>
	<path class="st1" d="M142.6,114.5l-0.7-0.5L142.6,114.5z"/>
	<path class="st1" d="M82.4,103.1c-1.3,0.7-2.6,1.5-4,2.2C79.8,104.6,81.1,103.9,82.4,103.1z"/>
	<path class="st1" d="M111.3,150.5l0.5,0.2L111.3,150.5z"/>
	<path class="st1" d="M140.1,112.8l-1-0.6L140.1,112.8z"/>
	<path class="st1" d="M88.5,100.3l-1,0.4L88.5,100.3z"/>
	<path class="st1" d="M105.7,98.6l-0.8-0.1L105.7,98.6z"/>
	<path class="st1" d="M91.2,99.5l-1.1,0.3L91.2,99.5z"/>
	<path class="st1" d="M84.8,151.7c1.1-0.6,2.1-1.1,3.1-1.7C86.9,150.6,85.9,151.2,84.8,151.7z"/>
	<path class="st1" d="M102.1,98.3L102.1,98.3z"/>
	<path class="st1" d="M99.4,98.3l-0.9,0L99.4,98.3z"/>
	<path class="st1" d="M90,149l0.4-0.2L90,149z"/>
	<path class="st1" d="M108.7,99.1l-1.1-0.2L108.7,99.1z"/>
	<path class="st1" d="M92.5,148.2l0.4-0.1L92.5,148.2z"/>
	<path class="st1" d="M94.9,147.7l0.4,0L94.9,147.7z"/>
	<path class="st1" d="M100.3,147.7L100.3,147.7z"/>
	<path class="st1" d="M120,102.2l-1-0.4L120,102.2z"/>
	<path class="st1" d="M117.2,101.2l-1.1-0.3L117.2,101.2z"/>
	<path class="st1" d="M93.9,98.9l-1.1,0.2L93.9,98.9z"/>
	<path class="st1" d="M114.3,151.7l0.1,0.1L114.3,151.7z"/>
	<path class="st1" d="M111.6,99.6l-1.1-0.3L111.6,99.6z"/>
	<path class="st1" d="M114.4,100.4l-1.1-0.3L114.4,100.4z"/>
	<path class="st1" d="M108.5,149.5l0.4,0.1L108.5,149.5z"/>
	<path class="st1" d="M141.4,134.8l0.9,0.7L141.4,134.8z"/>
	<path class="st1" d="M139.3,133.1l0.8,0.6L139.3,133.1z"/>
	<path class="st1" d="M127.9,159.3l0.2,0.1L127.9,159.3z"/>
	<path class="st1" d="M148.6,118.8l-0.9-0.7L148.6,118.8z"/>
	<path class="st1" d="M73.3,157c1-0.4,2-0.8,2.9-1.2C75.2,156.2,74.3,156.7,73.3,157z"/>
	<path class="st1" d="M125.2,157.6l0.5,0.3L125.2,157.6z"/>
	<path class="st1" d="M137.2,131.5l0.5,0.3L137.2,131.5z"/>
	<path class="st1" d="M143.5,136.5l0.9,0.8L143.5,136.5z"/>
	<path class="st1" d="M129.9,126.5l0.9,0.6L129.9,126.5z"/>
	<path class="st1" d="M139.6,146.9c-1.7-1.1-3.3-2.2-4.9-3.3C136.3,144.6,138,145.7,139.6,146.9z"/>
	<path class="st1" d="M127.7,125.1l0.9,0.6L127.7,125.1z"/>
	<path class="st1" d="M145.6,138.2l1,0.8L145.6,138.2z"/>
	<path class="st1" d="M130.3,161l0.3,0.2l0,0L130.3,161z"/>
	<path class="st1" d="M132.1,127.9l0.8,0.5L132.1,127.9z"/>
	<path class="st1" d="M134.4,129.5l0.6,0.4L134.4,129.5z"/>
	<path class="st1" d="M53.8,114.5c-1.6,0.4-3.1,0.9-4.7,1.3C50.7,115.3,52.2,114.9,53.8,114.5z"/>
	<path class="st1" d="M58.6,113.1c-1.1,0.3-2.1,0.6-3.2,0.9C56.4,113.7,57.5,113.4,58.6,113.1z"/>
	<path class="st1" d="M155.7,124.5l-1-0.8L155.7,124.5z"/>
	<path class="st1" d="M63.3,111.5c-1,0.3-1.9,0.6-2.9,0.9C61.4,112.2,62.3,111.9,63.3,111.5z"/>
	<path class="st1" d="M153.4,122.7l-1-0.8L153.4,122.7z"/>
	<path class="st1" d="M160.1,128.3l-0.8-0.7L160.1,128.3z"/>
	<path class="st1" d="M151.1,120.8l-1-0.8L151.1,120.8z"/>
	<path class="st1" d="M116.9,153l0.6,0.3L116.9,153z"/>
	<path class="st1" d="M77,106c-0.9,0.5-1.9,0.9-2.8,1.3C75.2,106.9,76.1,106.4,77,106z"/>
	<path class="st3" d="M151.1,143c-1.6,2-3.2,3.9-4.9,5.6c-0.5,0.6-1.1,1.1-1.7,1.7c-1.5-1.1-3-2.2-4.4-3.2c3.3,2.3,6.7,4.8,10.1,7.6
		l5,4.1c1.6-1.6,3.2-3.3,4.7-5.1c0.4-0.4,0.7-0.9,1-1.3l-4.6-4.5C154.6,146.3,152.9,144.6,151.1,143z"/>
	<path class="st1" d="M119.9,154.5l0.4,0.2L119.9,154.5z"/>
	<path class="st1" d="M72.5,108c-0.9,0.4-1.8,0.8-2.7,1.1C70.7,108.8,71.6,108.4,72.5,108z"/>
	<path class="st1" d="M147.7,140l0.9,0.8L147.7,140z"/>
	<path class="st1" d="M149.7,141.8l0.9,0.8L149.7,141.8z"/>
	<path class="st1" d="M122.4,156l0.4,0.3L122.4,156z"/>
	<path class="st1" d="M91.3,131.2c0.7-0.1,1.4-0.2,2.2-0.3C92.7,130.9,92,131,91.3,131.2z"/>
	<path class="st1" d="M77.1,155.5c1.2-0.5,2.3-1,3.4-1.6C79.4,154.4,78.2,155,77.1,155.5z"/>
	<path class="st1" d="M67.9,109.9c-0.9,0.3-1.8,0.7-2.8,1C66.1,110.6,67,110.2,67.9,109.9z"/>
	<path class="st1" d="M55.4,114l-1.6,0.5L55.4,114z"/>
	<path class="st1" d="M101.7,98.3c-0.8,0-1.6,0-2.4,0C100.2,98.3,100.9,98.3,101.7,98.3z"/>
	<path class="st1" d="M119,101.9c-0.6-0.2-1.2-0.4-1.8-0.6C117.8,101.4,118.4,101.6,119,101.9z"/>
	<path class="st1" d="M122.2,103.1c-0.7-0.3-1.4-0.6-2.2-0.9C120.7,102.5,121.4,102.8,122.2,103.1z"/>
	<path class="st1" d="M131,107.3l-1.7-0.9L131,107.3z"/>
	<path class="st1" d="M125.5,104.5c-0.9-0.4-1.8-0.8-2.8-1.2C123.7,103.7,124.6,104.1,125.5,104.5z"/>
	<path class="st1" d="M128.3,105.9c-0.7-0.3-1.3-0.7-2-1C126.9,105.2,127.6,105.5,128.3,105.9z"/>
	<path class="st1" d="M113.3,100.1l-1.7-0.4L113.3,100.1z"/>
	<path class="st1" d="M107.7,98.9c-0.6-0.1-1.3-0.2-1.9-0.3C106.3,98.7,107,98.8,107.7,98.9z"/>
	<path class="st1" d="M104.9,98.5c-0.9-0.1-1.9-0.1-2.8-0.2C103.1,98.4,104,98.4,104.9,98.5z"/>
	<path class="st1" d="M110.4,99.4c-0.6-0.1-1.2-0.2-1.7-0.3C109.3,99.1,109.9,99.3,110.4,99.4z"/>
	<path class="st1" d="M116.1,100.9l-1.7-0.5L116.1,100.9z"/>
	<path class="st1" d="M150.1,120l-1.5-1.1L150.1,120z"/>
	<path class="st1" d="M152.4,121.9l-1.4-1.1L152.4,121.9z"/>
	<path class="st1" d="M147.6,118.1l-1.9-1.4L147.6,118.1z"/>
	<path class="st1" d="M154.8,123.7l-1.3-1.1L154.8,123.7z"/>
	<path class="st1" d="M141.9,114l-1.9-1.2L141.9,114z"/>
	<path class="st1" d="M145.2,116.3c-0.8-0.6-1.7-1.2-2.5-1.8C143.5,115.1,144.3,115.7,145.2,116.3z"/>
	<path class="st1" d="M139.1,112.2l-1.6-1L139.1,112.2z"/>
	<path class="st1" d="M136.4,110.4l-1.6-1L136.4,110.4z"/>
	<path class="st1" d="M133.7,108.8l-1.6-1L133.7,108.8z"/>
	<path class="st1" d="M65.2,110.9l-1.9,0.7L65.2,110.9z"/>
	<path class="st1" d="M49.1,115.7l-0.4,0.1L49.1,115.7z"/>
	<path class="st1" d="M26.4,120.4l-1.6,0.3L26.4,120.4z"/>
	<path class="st1" d="M30.7,119.7l-1.8,0.3L30.7,119.7z"/>
	<path class="st1" d="M44.3,116.9l-1.7,0.4L44.3,116.9z"/>
	<path class="st1" d="M95.6,98.6c-0.6,0.1-1.1,0.1-1.7,0.3C94.5,98.8,95.1,98.7,95.6,98.6z"/>
	<path class="st1" d="M35.1,118.9l-1.9,0.3L35.1,118.9z"/>
	<path class="st1" d="M155.7,124.5l1.3,1.1L155.7,124.5z"/>
	<path class="st1" d="M22.3,121l-1.2,0.2L22.3,121z"/>
	<path class="st3" d="M17.6,121.7c-1.9-5-3.2-10.2-4-15.5c16.6-1.7,55.9-7.1,81.4-22c14.8-8.6,39.1,7.1,55.9,21.5
		c5.4,4.6,10,9,13.3,12.5c-1.1,3.5-2.4,6.9-4,10.2l-0.1-0.1c2.9,2.6,5.6,5.1,8.1,7.5l2.4,2.3C194.5,94.1,178.2,39,134.1,15
		C90-8.9,34.9,7.4,11,51.5c-12,22-14.3,48-6.4,71.8l6.7-0.8C13.1,122.3,15.2,122,17.6,121.7z M34.4,41.1
		c29.8-30.8,78.9-31.7,109.8-1.9c5,4.8,9.3,10.3,12.8,16.3c-19.2-14.8-45.9-29-67.3-16.5c-19.6,11.5-50,16.7-67.7,19
		C25.4,51.9,29.6,46.2,34.4,41.1L34.4,41.1z M15.1,75.9c15.4-1.5,56.7-6.7,83.2-22.2c14.8-8.6,39.1,7.1,55.9,21.5
		c5.3,4.5,9.9,8.9,13.2,12.4c0.3,3.4,0.4,6.9,0.3,10.3c-2-1.9-4.2-3.9-6.7-5.9c-19.2-16.4-50.3-36.5-74.6-22.3
		c-22,12.9-57.6,17.9-73.5,19.6C13.2,84.8,14,80.3,15.1,75.9z"/>
	<path class="st1" d="M96.6,98.5c0.6-0.1,1.2-0.1,1.8-0.1C97.8,98.4,97.2,98.5,96.6,98.5z"/>
	<path class="st1" d="M39.7,117.9l-1.8,0.4L39.7,117.9z"/>
	<path class="st1" d="M90.2,99.8c-0.6,0.2-1.1,0.3-1.6,0.5C89.1,100.1,89.6,100,90.2,99.8z"/>
	<path class="st1" d="M84.9,101.8c-0.9,0.4-1.7,0.8-2.5,1.3C83.2,102.7,84.1,102.2,84.9,101.8z"/>
	<path class="st1" d="M87.5,100.7c-0.6,0.2-1.2,0.5-1.8,0.7C86.3,101.2,86.9,100.9,87.5,100.7z"/>
	<path class="st1" d="M60.4,112.5l-1.8,0.6L60.4,112.5z"/>
	<path class="st1" d="M92.8,99.1c-0.5,0.1-1.1,0.2-1.6,0.4C91.8,99.4,92.3,99.2,92.8,99.1z"/>
	<path class="st1" d="M159.3,127.6l-1.4-1.2L159.3,127.6z"/>
	<path class="st1" d="M78.4,105.3c-0.5,0.2-0.9,0.5-1.4,0.7C77.5,105.7,78,105.5,78.4,105.3z"/>
	<path class="st1" d="M69.8,109.2l-1.8,0.7L69.8,109.2z"/>
	<path class="st1" d="M74.2,107.3l-1.7,0.7L74.2,107.3z"/>
	<path class="st1" d="M113.5,118l1.5,0.6L113.5,118z"/>
	<path class="st1" d="M80.7,122.9l1.6-0.7L80.7,122.9z"/>
	<path class="st1" d="M92.9,116.8c0.3-0.1,0.7-0.3,1-0.4C93.6,116.5,93.2,116.7,92.9,116.8z"/>
	<path class="st1" d="M94.5,116.2c0.3-0.1,0.6-0.2,1-0.3C95.2,116,94.9,116.1,94.5,116.2z"/>
	<path class="st1" d="M90.9,117.8c0.5-0.3,1-0.5,1.5-0.8C91.9,117.2,91.4,117.5,90.9,117.8z"/>
	<path class="st1" d="M85.4,120.7l1.4-0.7L85.4,120.7z"/>
	<path class="st1" d="M96.2,115.8c0.3-0.1,0.6-0.1,1-0.2C96.8,115.7,96.5,115.7,96.2,115.8z"/>
	<path class="st1" d="M103.2,115.5l1.1,0.1L103.2,115.5z"/>
	<path class="st1" d="M101.4,115.4l1,0L101.4,115.4z"/>
	<path class="st1" d="M99.6,115.4h1H99.6z"/>
	<path class="st1" d="M97.9,115.5l1-0.1L97.9,115.5z"/>
	<path class="st1" d="M76.1,124.9l1.5-0.6L76.1,124.9z"/>
	<path class="st1" d="M50.1,133l1.2-0.3L50.1,133z"/>
	<path class="st1" d="M44.1,134.3l1.3-0.3L44.1,134.3z"/>
	<path class="st1" d="M38.9,135.4l1.7-0.3L38.9,135.4z"/>
	<path class="st1" d="M34.2,136.3l1.6-0.3L34.2,136.3z"/>
	<path class="st1" d="M105.1,115.7l1.1,0.2L105.1,115.7z"/>
	<path class="st1" d="M65.2,128.8l1.5-0.5L65.2,128.8z"/>
	<path class="st1" d="M55,131.7l1.7-0.5L55,131.7z"/>
	<path class="st1" d="M151.1,143l-0.4-0.4L151.1,143z"/>
	<path class="st1" d="M60,130.3l1.8-0.5L60,130.3z"/>
	<path class="st1" d="M71.4,126.7l0.7-0.3L71.4,126.7z"/>
	<path class="st1" d="M140.1,133.7l1.3,1L140.1,133.7z"/>
	<path class="st1" d="M135.1,130l2.1,1.5L135.1,130z"/>
	<path class="st1" d="M137.6,131.9l1.7,1.3L137.6,131.9z"/>
	<path class="st1" d="M130.8,127l1.4,0.9L130.8,127z"/>
	<path class="st1" d="M132.9,128.5l1.5,1.1L132.9,128.5z"/>
	<path class="st1" d="M142.3,135.5l1.2,1L142.3,135.5z"/>
	<path class="st1" d="M148.6,140.8l1.1,1L148.6,140.8z"/>
	<path class="st1" d="M146.5,139l1.1,1L146.5,139z"/>
	<path class="st1" d="M144.5,137.2l1.1,1L144.5,137.2z"/>
	<path class="st1" d="M128.6,125.7l1.3,0.8L128.6,125.7z"/>
	<path class="st1" d="M115.8,118.9l1.3,0.5L115.8,118.9z"/>
	<path class="st1" d="M126.5,124.3l1.2,0.8L126.5,124.3z"/>
	<path class="st1" d="M29.7,137l1.2-0.2L29.7,137z"/>
	<path class="st1" d="M109,116.5c0.5,0.1,1.1,0.3,1.6,0.5C110.1,116.8,109.5,116.7,109,116.5z"/>
	<path class="st1" d="M107.1,116.1l1.3,0.3L107.1,116.1z"/>
	<path class="st1" d="M111,117.1c0.7,0.2,1.3,0.4,2,0.7C112.3,117.5,111.6,117.3,111,117.1z"/>
	<path class="st1" d="M124.3,123.1l1.2,0.7L124.3,123.1z"/>
	<path class="st1" d="M122.2,121.9l1.2,0.7L122.2,121.9z"/>
	<path class="st1" d="M117.9,119.8l1.2,0.6L117.9,119.8z"/>
	<path class="st1" d="M120.1,120.8l1.2,0.6L120.1,120.8z"/>
</g>
<g id="Layer_1_1_">
	<path class="st3" d="M306.6,143.7h-8.4L233.1,42.4v101.3h-7.9V30.1h8.5l65,101.3V30.1h7.9L306.6,143.7z"/>
	<path class="st3" d="M393.7,105.3h-59.4c0.3,19.7,7.7,33.4,29.7,33.4c9.2,0,16.4-2.4,22-8.3l5,4.2c-6.8,7.2-15.2,10.6-27,10.6
		c-26.8,0-37.2-16.9-37.2-40.5c0-22.6,9.7-40.4,35.5-40.4c21.9,0,31.4,15.6,31.4,35.8V105.3z M386.7,99.7c-0.3-16-6.3-29-24.6-29
		c-18.4,0-26.5,11.4-27.8,29H386.7z"/>
	<path class="st3" d="M523.1,65.6l-26,78.1h-7.8l-25.4-68.8l-25.3,68.9h-8l-25.5-78.2h7.7l21.9,69.2l25.5-69.2h7.7l25.3,69.3
		l22.5-69.4L523.1,65.6z"/>
	<path class="st3" d="M556.2,143.9h-17.2V30.1h17.2L556.2,143.9z"/>
	<path class="st3" d="M649.4,133c-8.2,8.1-18.4,12.2-30.7,12.2s-22.5-4.1-30.7-12.2c-16.4-16.5-16.4-43.2,0-59.7
		c8.2-8.1,18.4-12.2,30.7-12.2c12.3,0,22.5,4.1,30.7,12.2C665.7,89.8,665.7,116.4,649.4,133z M600.2,122.4c4.9,5,11,7.4,18.5,7.4
		c7.5,0,13.6-2.5,18.5-7.4c4.9-5,7.3-11.4,7.3-19.3s-2.4-14.3-7.3-19.2c-4.9-5-11-7.4-18.5-7.4c-7.5,0-13.6,2.5-18.5,7.4
		s-7.3,11.4-7.3,19.3S595.3,117.4,600.2,122.4z"/>
	<path class="st3" d="M756.6,62.3v71.2c0,14.4-3.9,25.2-11.7,32.5c-7.8,7.2-17.9,10.8-30.2,10.8c-12.1,0.1-23.8-4-33.3-11.5l8.1-13
		c8,6,16.1,9,24.2,9c8.1,0,14.6-2.1,19.3-6.3c4.8-4.2,7.1-10.9,7.1-20.1v-10.4c-2.5,4.8-6.3,8.8-11,11.5c-4.8,2.9-10.4,4.4-16,4.3
		c-10.8,0-19.7-3.8-26.7-11.4c-7-7.6-10.4-17-10.4-28.2c0-11.3,3.5-20.7,10.4-28.2c7-7.6,15.8-11.4,26.6-11.4s19.6,4.5,26.3,13.4
		V62.3H756.6z M693,100c-0.1,6.3,2.1,12.5,6.2,17.3c4.1,4.9,9.7,7.3,16.7,7.3s12.7-2.4,17-7.1c4.3-4.7,6.5-10.6,6.5-17.6
		c0.2-6.6-2.2-12.9-6.6-17.8c-4.3-4.8-10.5-7.5-17-7.3c-7,0-12.5,2.5-16.7,7.5C695.1,87.3,692.9,93.6,693,100L693,100z"/>
	<path class="st3" d="M782.6,46c-4.2-4.2-4.1-11,0.1-15.2c4.2-4.2,11-4.1,15.2,0.1c4.2,4.2,4.1,11-0.1,15.2c-2,2-4.7,3.1-7.5,3.1
		C787.4,49.3,784.6,48.1,782.6,46z M798.7,143.9h-17.2V62.3h17.2V143.9z"/>
	<path class="st3" d="M859.8,145.2c-10.9,0.2-21.5-4-29.3-11.6c-8.2-7.7-12.3-17.8-12.3-30.3c0-12.5,4.3-22.6,12.8-30.5
		c8.5-7.8,18.9-11.7,31.2-11.7c11.7-0.2,23,4.4,31.2,12.7l-10.1,12.4c-7.1-6.1-14.2-9.2-21.3-9.2c-6.9-0.1-13.6,2.5-18.7,7.1
		c-5.3,4.8-7.9,10.9-7.9,18.4c-0.1,14.8,11.8,26.8,26.5,26.9c0.2,0,0.4,0,0.6,0c7.6,0,14.8-3.5,21.6-10.4l10.1,11
		C884.2,140.1,872.8,145.2,859.8,145.2z"/>
</g>
</svg>
