<svg xmlns="http://www.w3.org/2000/svg" width="894.14" height="176.77" viewBox="0 0 894.14 176.77"><defs><style>.cls-1{fill:#6b6b6b;}.cls-2{fill:#209d6a;}.cls-3{fill:none;}</style></defs><title>logo</title><g id="Layer_2" data-name="Layer 2"><path class="cls-1" d="M280.69,412.1l31.61-.36,31.61-.25c21.07-.13,42.14-.28,63.21-.29l63.21-.09,63.21.13h.86v.85l-.27,46.32-.58-.58,29.21.24,29.21.33-29.21.33-29.21.24H533v-.58l-.27-46.32.85.85-63.21.13L407.12,413c-21.07,0-42.14-.16-63.21-.29l-31.61-.25Z" transform="translate(-52.93 -411.12)"/><path class="cls-1" d="M278.12,462.36l25.93-.35q13-.18,25.93-.25c17.29-.13,34.58-.28,51.87-.29l51.87-.09,51.87.13-.85.85.27-39.58v-.58h.57q12,.07,24,.24l24,.33-24,.33q-12,.16-24,.24l.58-.58.27,39.58v.85h-.86l-51.87.13-51.87-.09c-17.29,0-34.58-.16-51.87-.29q-13-.08-25.93-.25Z" transform="translate(-52.93 -411.12)"/><path class="cls-1" d="M313.9,560.48q28.9-.44,57.79-.63l28.9-.21,28.9-.07c19.26,0,38.53-.13,57.79,0s38.53,0,57.79.19l-.77.77.16-22.9V537h.6q13.35.08,26.71.25l26.71.35-26.71.35q-13.35.18-26.71.25l.6-.6.16,22.9v.76h-.77c-19.26.15-38.53.12-57.79.19s-38.53,0-57.79,0l-28.9-.07-28.9-.21Q342.8,560.94,313.9,560.48Z" transform="translate(-52.93 -411.12)"/><path class="cls-2" d="M84,579.68l.12,0q-1.64-1.32-3.24-2.73h0Z" transform="translate(-52.93 -411.12)"/><path class="cls-3" d="M217.13,529.32c-3.29-3.44-7.91-7.88-13.29-12.47-16.82-14.33-41.12-30.09-55.9-21.46-25.54,14.91-64.85,20.31-81.42,22a77.67,77.67,0,0,0,4,15.47l3.46-.49,1.23-.19,2.58-.4,1.59-.26,2.5-.42,1.77-.31,2.56-.47L88,530l2.71-.54L92.6,529l3-.66,1.67-.37q2.14-.5,4.31-1l.43-.11q2.36-.6,4.72-1.26l1.58-.46c1.06-.3,2.12-.61,3.17-.94l1.84-.58c1-.31,1.92-.62,2.87-.94l1.9-.66q1.39-.49,2.75-1l1.85-.72c.91-.36,1.81-.74,2.7-1.12l1.72-.74c1-.43,1.89-.88,2.81-1.33.46-.23.94-.44,1.4-.67,1.36-.69,2.69-1.41,4-2.15.84-.49,1.69-.93,2.54-1.34.28-.13.56-.25.84-.37.58-.26,1.16-.51,1.75-.74l1-.36c.54-.19,1.08-.37,1.63-.53l1.07-.29q.8-.21,1.61-.38l1.08-.21c.55-.1,1.11-.18,1.66-.25l1.05-.13c.6-.06,1.2-.1,1.8-.13l.93-.05c.79,0,1.59,0,2.38,0H155c.92,0,1.84.09,2.77.18l.83.1c.65.07,1.3.15,1.95.25l1.06.18c.58.1,1.16.21,1.73.33l1.13.25,1.68.42,1.14.31,1.7.51,1.1.35c.6.2,1.2.41,1.8.63l1,.36c.73.28,1.45.57,2.18.87l.6.24q1.38.58,2.76,1.22l.76.37c.66.32,1.33.63,2,1l1,.53,1.69.89,1.1.61,1.61.91,1.11.65,1.59,1,1.07.66,1.64,1,1,.63,1.85,1.24.73.49q1.27.88,2.51,1.77l.62.46,1.85,1.36.94.71,1.49,1.14,1,.78,1.38,1.1,1,.81,1.32,1.09,1,.81,1.31,1.11.9.77,1.38,1.2.77.67.09.08A77.13,77.13,0,0,0,217.13,529.32Z" transform="translate(-52.93 -411.12)"/><path class="cls-3" d="M210,466.65a77.59,77.59,0,0,0-135,2.49c17.65-2.22,48.07-7.5,67.69-19C164.14,437.68,190.83,451.89,210,466.65Z" transform="translate(-52.93 -411.12)"/><path class="cls-3" d="M214,503.07c2.42,2.06,4.65,4.07,6.66,5.93a77.75,77.75,0,0,0-.29-10.34c-3.28-3.43-7.86-7.83-13.19-12.37C190.35,472,166,456.19,151.25,464.82,124.75,480.29,83.41,485.52,68,487a77.31,77.31,0,0,0-2.17,13.41c15.92-1.7,51.52-6.78,73.52-19.63C163.73,466.56,194.76,486.69,214,503.07Z" transform="translate(-52.93 -411.12)"/><path class="cls-3" d="M199.07,559.75q2.57-2.68,4.92-5.64l-.42-.38-.94-.85-1.09-1-.95-.83-1.11-1-1-.81-1.15-1-.93-.77-1.21-1-.88-.71-1.33-1-.79-.61L190.55,543l-.45-.34L188,541.09l-.6-.42-1.54-1.08-.79-.53-1.36-.91-.87-.56-1.27-.81-.91-.56-1.24-.75-.92-.54-1.22-.7-.91-.51-1.22-.66-.9-.48-1.22-.62-.89-.44-1.24-.58-.85-.39-1.3-.55-.77-.32-1.5-.57-.54-.2q-1-.36-2-.68l-.37-.11c-.54-.16-1.07-.32-1.61-.46l-.69-.17-1.26-.3-.76-.15-1.14-.2-.79-.11-1.08-.13-.8-.06-1-.05h-.78l-1,0-.77,0-1,.1-.74.1c-.32.05-.64.11-1,.18l-.7.15c-.33.08-.64.18-1,.27l-.63.19c-.35.12-.69.26-1,.4l-.51.21c-.5.23-1,.48-1.47.76-1.35.79-2.75,1.54-4.17,2.28l-1.37.68c-1,.5-2,1-3,1.46l-1.6.72q-1.53.68-3.1,1.32L129,536q-2,.78-4,1.51l-.73.27q-2.37.86-4.79,1.64l-1.46.46q-1.72.55-3.44,1.06l-1.76.51-3.26.91-1.71.46q-1.86.49-3.71.94l-1.17.29q-2.41.58-4.79,1.1l-1.29.28-3.49.73-1.68.33-3.06.58-1.63.3-3.22.56-1.21.21-4.07.65A77.22,77.22,0,0,0,89,561.41l.33-.07c2.14-.45,4.25-.92,6.3-1.41h0c2-.49,4-1,6-1.51l.52-.14c1.84-.5,3.63-1,5.39-1.55l.71-.21q2.55-.78,4.95-1.6l.76-.26q2.36-.82,4.59-1.68l.71-.28c1.48-.58,2.91-1.17,4.28-1.78l.56-.25c1.39-.62,2.74-1.26,4-1.91l.35-.18c1.33-.68,2.61-1.37,3.81-2.07h0l.07,0a34.57,34.57,0,0,1,3.23-1.65c.38-.17.77-.3,1.16-.45.76-.31,1.51-.61,2.29-.87.47-.15.95-.26,1.42-.39.72-.2,1.43-.4,2.17-.55.51-.11,1-.18,1.56-.26.72-.12,1.43-.23,2.16-.31.55-.06,1.11-.08,1.66-.12.73,0,1.46-.08,2.2-.09.58,0,1.16,0,1.74,0,.75,0,1.5.06,2.25.13.6.05,1.2.12,1.81.2.77.1,1.54.21,2.32.34q.92.16,1.86.35c.79.17,1.59.35,2.4.56.63.16,1.26.32,1.9.51.82.24,1.65.5,2.48.78.64.21,1.28.42,1.93.66.85.31,1.72.65,2.59,1,.64.26,1.29.51,1.94.79.9.39,1.81.82,2.72,1.25.64.3,1.27.59,1.91.91,1,.49,1.95,1,2.93,1.55.6.33,1.2.63,1.81,1,1.11.63,2.23,1.31,3.36,2,.5.3,1,.58,1.48.89q2.45,1.54,4.94,3.26l.4.29c1.46,1,2.93,2.06,4.42,3.17Q198.26,560.59,199.07,559.75Z" transform="translate(-52.93 -411.12)"/><path class="cls-3" d="M181,570.58l-.17-.11q-1.07-.71-2.17-1.4l-.51-.32q-1.15-.72-2.32-1.41l-.45-.26q-1.08-.63-2.19-1.24l-.36-.2q-1.2-.66-2.42-1.27l-.55-.28c-.83-.41-1.66-.81-2.5-1.19l-.13-.06c-.8-.36-1.6-.69-2.4-1l-.54-.22c-.82-.32-1.64-.62-2.46-.9l-.44-.14q-1.13-.37-2.25-.67l-.38-.11c-.81-.21-1.62-.39-2.43-.55l-.53-.1c-.82-.15-1.64-.27-2.44-.35h-.06c-.79-.08-1.56-.11-2.33-.12h-.51c-.77,0-1.52,0-2.27.12l-.38.05a20,20,0,0,0-2,.35l-.36.08a18.12,18.12,0,0,0-2.1.67l-.45.19a17.14,17.14,0,0,0-2,1c-1,.58-2,1.15-3.1,1.72l-.92.48q-1.27.66-2.6,1.31l-.79.39q-1.68.8-3.45,1.58l-.83.35q-1.44.62-2.92,1.21l-1.1.44c-1.19.47-2.4.93-3.64,1.38l-.25.09c-1.32.47-2.67.94-4,1.39l-1.19.39q-1.64.53-3.34,1l-1.06.32q-2.16.64-4.41,1.26l-.24.07a77,77,0,0,0,76.53-2.28l-.25-.17Q182.12,571.34,181,570.58Z" transform="translate(-52.93 -411.12)"/><path class="cls-2" d="M132.27,546.51h0l.07,0-.07,0Z" transform="translate(-52.93 -411.12)"/><path class="cls-2" d="M146.36,542c.55-.06,1.11-.08,1.66-.12C147.46,541.88,146.9,541.91,146.36,542Z" transform="translate(-52.93 -411.12)"/><path class="cls-2" d="M173.18,565.83q1.1.61,2.19,1.24Q174.28,566.44,173.18,565.83Z" transform="translate(-52.93 -411.12)"/><path class="cls-2" d="M181,570.58q1.14.75,2.23,1.52C182.49,571.59,181.74,571.08,181,570.58Z" transform="translate(-52.93 -411.12)"/><path class="cls-2" d="M193,558.25l-.4-.29Z" transform="translate(-52.93 -411.12)"/><path class="cls-2" d="M175.82,567.34q1.17.69,2.32,1.41Q177,568,175.82,567.34Z" transform="translate(-52.93 -411.12)"/><path class="cls-2" d="M178.65,569.07q1.1.69,2.17,1.4Q179.75,569.76,178.65,569.07Z" transform="translate(-52.93 -411.12)"/><path class="cls-2" d="M167.35,562.9c.83.38,1.67.78,2.5,1.19C169,563.67,168.19,563.27,167.35,562.9Z" transform="translate(-52.93 -411.12)"/><path class="cls-2" d="M153.34,558.79c.81.08,1.62.21,2.44.35C155,559,154.15,558.87,153.34,558.79Z" transform="translate(-52.93 -411.12)"/><path class="cls-2" d="M150.95,558.67c.77,0,1.54,0,2.33.12C152.49,558.71,151.72,558.68,150.95,558.67Z" transform="translate(-52.93 -411.12)"/><path class="cls-2" d="M148.17,558.79c.75-.08,1.5-.12,2.27-.12C149.68,558.67,148.92,558.71,148.17,558.79Z" transform="translate(-52.93 -411.12)"/><path class="cls-2" d="M170.4,564.36q1.22.62,2.42,1.27Q171.62,565,170.4,564.36Z" transform="translate(-52.93 -411.12)"/><path class="cls-2" d="M145.79,559.19a20,20,0,0,1,2-.35A20,20,0,0,0,145.79,559.19Z" transform="translate(-52.93 -411.12)"/><path class="cls-2" d="M164.82,561.82c.8.32,1.6.66,2.4,1C166.42,562.48,165.62,562.15,164.82,561.82Z" transform="translate(-52.93 -411.12)"/><path class="cls-2" d="M161.82,560.71c.82.28,1.64.58,2.46.9Q163,561.13,161.82,560.71Z" transform="translate(-52.93 -411.12)"/><path class="cls-2" d="M156.32,559.24c.8.16,1.61.34,2.43.55C157.93,559.58,157.12,559.4,156.32,559.24Z" transform="translate(-52.93 -411.12)"/><path class="cls-2" d="M159.13,559.9q1.12.3,2.25.67Q160.25,560.2,159.13,559.9Z" transform="translate(-52.93 -411.12)"/><path class="cls-2" d="M156,542.13c-.61-.08-1.21-.15-1.81-.2C154.81,542,155.42,542.05,156,542.13Z" transform="translate(-52.93 -411.12)"/><path class="cls-2" d="M128.46,548.58l-.35.18Z" transform="translate(-52.93 -411.12)"/><path class="cls-2" d="M124.08,550.66l-.56.25Z" transform="translate(-52.93 -411.12)"/><path class="cls-2" d="M136.75,544.35c-.38.16-.78.28-1.16.45C136,544.64,136.36,544.51,136.75,544.35Z" transform="translate(-52.93 -411.12)"/><path class="cls-2" d="M187.64,554.71c-.5-.31-1-.59-1.48-.89C186.65,554.12,187.14,554.39,187.64,554.71Z" transform="translate(-52.93 -411.12)"/><path class="cls-2" d="M119.23,552.69l-.71.28Z" transform="translate(-52.93 -411.12)"/><path class="cls-2" d="M102.13,558.28l-.52.14Z" transform="translate(-52.93 -411.12)"/><path class="cls-2" d="M89,561.41l.33-.07-.33.07Z" transform="translate(-52.93 -411.12)"/><path class="cls-2" d="M113.94,554.65l-.76.26Z" transform="translate(-52.93 -411.12)"/><path class="cls-2" d="M95.66,559.93h0Z" transform="translate(-52.93 -411.12)"/><path class="cls-2" d="M140.46,543.1c-.47.13-1,.24-1.42.39C139.5,543.34,140,543.23,140.46,543.1Z" transform="translate(-52.93 -411.12)"/><path class="cls-2" d="M178.06,549.29c-.64-.32-1.27-.61-1.91-.91C176.79,548.68,177.42,549,178.06,549.29Z" transform="translate(-52.93 -411.12)"/><path class="cls-2" d="M144.19,542.28c-.52.09-1,.16-1.56.26C143.14,542.43,143.67,542.36,144.19,542.28Z" transform="translate(-52.93 -411.12)"/><path class="cls-2" d="M168.91,545.32c-.65-.23-1.29-.45-1.93-.66C167.62,544.88,168.26,545.09,168.91,545.32Z" transform="translate(-52.93 -411.12)"/><path class="cls-2" d="M182.8,551.82c-.61-.34-1.2-.65-1.81-1C181.59,551.17,182.19,551.47,182.8,551.82Z" transform="translate(-52.93 -411.12)"/><path class="cls-2" d="M173.43,547.12c-.65-.28-1.29-.53-1.94-.79C172.14,546.59,172.78,546.84,173.43,547.12Z" transform="translate(-52.93 -411.12)"/><path class="cls-2" d="M143.33,559.94a18.12,18.12,0,0,1,2.1-.67A18.09,18.09,0,0,0,143.33,559.94Z" transform="translate(-52.93 -411.12)"/><path class="cls-2" d="M152,541.8c-.58,0-1.17,0-1.74,0C150.79,541.76,151.38,541.78,152,541.8Z" transform="translate(-52.93 -411.12)"/><path class="cls-2" d="M164.5,543.89c-.64-.18-1.27-.35-1.9-.51C163.23,543.54,163.86,543.71,164.5,543.89Z" transform="translate(-52.93 -411.12)"/><path class="cls-2" d="M160.2,542.83q-.94-.2-1.86-.35Q159.27,542.63,160.2,542.83Z" transform="translate(-52.93 -411.12)"/><path class="cls-2" d="M108.23,556.52l-.71.21Z" transform="translate(-52.93 -411.12)"/><path class="cls-2" d="M129.13,567l.83-.35Z" transform="translate(-52.93 -411.12)"/><path class="cls-2" d="M136.81,563.33l.92-.48Z" transform="translate(-52.93 -411.12)"/><path class="cls-2" d="M121.22,570.07l.25-.09Z" transform="translate(-52.93 -411.12)"/><path class="cls-2" d="M140.83,561.13a17.14,17.14,0,0,1,2-1A17.13,17.13,0,0,0,140.83,561.13Z" transform="translate(-52.93 -411.12)"/><path class="cls-2" d="M133.42,565l.79-.39Z" transform="translate(-52.93 -411.12)"/><path class="cls-2" d="M116,571.85l1.19-.39Z" transform="translate(-52.93 -411.12)"/><path class="cls-2" d="M111.59,573.22l1.06-.32Z" transform="translate(-52.93 -411.12)"/><path class="cls-2" d="M125.11,568.6l1.1-.44Z" transform="translate(-52.93 -411.12)"/><path class="cls-2" d="M162.6,543.38c-.8-.2-1.6-.39-2.4-.56C161,543,161.79,543.18,162.6,543.38Z" transform="translate(-52.93 -411.12)"/><path class="cls-2" d="M172.09,531.51l.89.44Z" transform="translate(-52.93 -411.12)"/><path class="cls-2" d="M86.17,530.31l-2.56.47Z" transform="translate(-52.93 -411.12)"/><path class="cls-2" d="M153.57,526.47h0Z" transform="translate(-52.93 -411.12)"/><path class="cls-2" d="M81.84,531.09l-2.5.42Z" transform="translate(-52.93 -411.12)"/><path class="cls-2" d="M176.33,533.7l.91.51Z" transform="translate(-52.93 -411.12)"/><path class="cls-2" d="M121.47,570c1.24-.45,2.45-.91,3.64-1.38C123.92,569.07,122.71,569.53,121.47,570Z" transform="translate(-52.93 -411.12)"/><path class="cls-2" d="M151.8,526.53l.77,0Z" transform="translate(-52.93 -411.12)"/><path class="cls-2" d="M186.16,553.82c-1.13-.69-2.25-1.37-3.36-2C183.91,552.44,185,553.13,186.16,553.82Z" transform="translate(-52.93 -411.12)"/><path class="cls-2" d="M158.34,542.47c-.78-.13-1.55-.25-2.32-.34C156.79,542.22,157.56,542.34,158.34,542.47Z" transform="translate(-52.93 -411.12)"/><path class="cls-2" d="M148.44,527.05l.7-.15Z" transform="translate(-52.93 -411.12)"/><path class="cls-2" d="M154.22,541.93c-.76-.07-1.51-.1-2.25-.13C152.71,541.83,153.46,541.87,154.22,541.93Z" transform="translate(-52.93 -411.12)"/><path class="cls-2" d="M150.09,526.72l.74-.1Z" transform="translate(-52.93 -411.12)"/><path class="cls-2" d="M157.26,526.72l.79.11Z" transform="translate(-52.93 -411.12)"/><path class="cls-2" d="M155.39,526.53l.8.06Z" transform="translate(-52.93 -411.12)"/><path class="cls-2" d="M165.9,528.89l.54.2Z" transform="translate(-52.93 -411.12)"/><path class="cls-2" d="M176.15,548.38c-.91-.43-1.82-.86-2.72-1.25C174.33,547.51,175.24,547.95,176.15,548.38Z" transform="translate(-52.93 -411.12)"/><path class="cls-2" d="M174.2,532.56l.9.48Z" transform="translate(-52.93 -411.12)"/><path class="cls-2" d="M167.94,529.67l.77.32Z" transform="translate(-52.93 -411.12)"/><path class="cls-2" d="M181,550.84c-1-.53-2-1.07-2.93-1.55C179,549.77,180,550.31,181,550.84Z" transform="translate(-52.93 -411.12)"/><path class="cls-2" d="M117.17,571.46c1.37-.46,2.73-.92,4-1.39C119.9,570.55,118.55,571,117.17,571.46Z" transform="translate(-52.93 -411.12)"/><path class="cls-2" d="M170,530.55l.85.39Z" transform="translate(-52.93 -411.12)"/><path class="cls-2" d="M95.6,528.37l-3,.66Z" transform="translate(-52.93 -411.12)"/><path class="cls-2" d="M167,544.67c-.83-.28-1.66-.54-2.48-.78C165.32,544.13,166.15,544.39,167,544.67Z" transform="translate(-52.93 -411.12)"/><path class="cls-2" d="M159.19,527l.76.15Z" transform="translate(-52.93 -411.12)"/><path class="cls-2" d="M161.21,527.48l.69.17Z" transform="translate(-52.93 -411.12)"/><path class="cls-2" d="M171.49,546.33c-.87-.35-1.73-.69-2.59-1C169.76,545.63,170.63,546,171.49,546.33Z" transform="translate(-52.93 -411.12)"/><path class="cls-2" d="M90.75,529.41,88,530Z" transform="translate(-52.93 -411.12)"/><path class="cls-2" d="M163.51,528.11l.37.11Z" transform="translate(-52.93 -411.12)"/><path class="cls-2" d="M112.65,572.9q1.69-.51,3.34-1Q114.34,572.38,112.65,572.9Z" transform="translate(-52.93 -411.12)"/><path class="cls-2" d="M93.48,546.17l3.49-.73Z" transform="translate(-52.93 -411.12)"/><path class="cls-2" d="M88.74,547.09l3.06-.58Z" transform="translate(-52.93 -411.12)"/><path class="cls-2" d="M123.52,550.92c-1.38.61-2.81,1.2-4.28,1.78C120.71,552.11,122.14,551.52,123.52,550.92Z" transform="translate(-52.93 -411.12)"/><path class="cls-2" d="M83.88,547.95l3.22-.56Z" transform="translate(-52.93 -411.12)"/><path class="cls-2" d="M107.18,574.48q2.25-.61,4.41-1.26Q109.42,573.86,107.18,574.48Z" transform="translate(-52.93 -411.12)"/><path class="cls-2" d="M128.11,548.76c-1.28.65-2.63,1.28-4,1.91C125.47,550,126.82,549.4,128.11,548.76Z" transform="translate(-52.93 -411.12)"/><path class="cls-2" d="M148.51,509.77l1.05-.13Z" transform="translate(-52.93 -411.12)"/><path class="cls-2" d="M98.26,545.17q2.38-.52,4.79-1.1Q100.64,544.64,98.26,545.17Z" transform="translate(-52.93 -411.12)"/><path class="cls-2" d="M118.52,553q-2.22.86-4.59,1.68Q116.3,553.83,118.52,553Z" transform="translate(-52.93 -411.12)"/><path class="cls-2" d="M107.52,556.73c-1.75.53-3.54,1-5.39,1.55C104,557.78,105.77,557.26,107.52,556.73Z" transform="translate(-52.93 -411.12)"/><path class="cls-2" d="M101.62,558.41c-1.94.52-3.92,1-6,1.51C97.7,559.44,99.68,558.93,101.62,558.41Z" transform="translate(-52.93 -411.12)"/><path class="cls-2" d="M113.18,554.91q-2.41.82-4.95,1.6Q110.78,555.74,113.18,554.91Z" transform="translate(-52.93 -411.12)"/><path class="cls-2" d="M95.65,559.93c-2,.49-4.15,1-6.3,1.41C91.49,560.89,93.6,560.42,95.65,559.93Z" transform="translate(-52.93 -411.12)"/><path d="M89,561.41A77.22,77.22,0,0,1,78.6,548.8l4.07-.65c-6.22,1-11.88,1.78-16.54,2.31l-1.48.17a90.17,90.17,0,0,0,9.52,13.68l10.67-2.06C86.26,562,87.64,561.7,89,561.41Z" transform="translate(-52.93 -411.12)"/><path class="cls-2" d="M210,536.78l.9.77Z" transform="translate(-52.93 -411.12)"/><path class="cls-2" d="M104.21,543.78q1.85-.45,3.71-.94Q106.06,543.32,104.21,543.78Z" transform="translate(-52.93 -411.12)"/><path class="cls-2" d="M146.85,527.52l.63-.19Z" transform="translate(-52.93 -411.12)"/><path class="cls-2" d="M130.56,535.37q1.57-.65,3.1-1.32Q132.13,534.72,130.56,535.37Z" transform="translate(-52.93 -411.12)"/><path class="cls-2" d="M139.67,531.17c1.42-.74,2.82-1.49,4.17-2.28C142.5,529.68,141.1,530.44,139.67,531.17Z" transform="translate(-52.93 -411.12)"/><path class="cls-2" d="M142.63,542.54c-.73.15-1.45.36-2.17.55C141.18,542.9,141.89,542.69,142.63,542.54Z" transform="translate(-52.93 -411.12)"/><path class="cls-2" d="M70.49,532.85l3.46-.49-3.46.49Z" transform="translate(-52.93 -411.12)"/><path class="cls-2" d="M135.26,533.32c1-.47,2-1,3-1.46Q136.8,532.6,135.26,533.32Z" transform="translate(-52.93 -411.12)"/><path class="cls-2" d="M150.22,541.76c-.74,0-1.47,0-2.2.09C148.75,541.81,149.48,541.77,150.22,541.76Z" transform="translate(-52.93 -411.12)"/><path class="cls-2" d="M145.31,528.13l.51-.21Z" transform="translate(-52.93 -411.12)"/><path class="cls-2" d="M178.47,534.91l.92.54Z" transform="translate(-52.93 -411.12)"/><path class="cls-2" d="M77.76,531.77l-2.58.4Z" transform="translate(-52.93 -411.12)"/><path class="cls-2" d="M139,543.49c-.78.25-1.53.56-2.29.87C137.5,544,138.26,543.74,139,543.49Z" transform="translate(-52.93 -411.12)"/><path class="cls-2" d="M132.27,546.51c-1.2.7-2.48,1.39-3.81,2.07C129.78,547.9,131.06,547.21,132.27,546.51Z" transform="translate(-52.93 -411.12)"/><path class="cls-2" d="M109.63,542.38l3.26-.91Z" transform="translate(-52.93 -411.12)"/><path class="cls-2" d="M114.65,541q1.73-.51,3.44-1.06Q116.38,540.43,114.65,541Z" transform="translate(-52.93 -411.12)"/><path class="cls-2" d="M125.07,537.51q2-.73,4-1.51Q127.07,536.78,125.07,537.51Z" transform="translate(-52.93 -411.12)"/><path class="cls-2" d="M119.55,539.43q2.41-.79,4.79-1.64Q122,538.64,119.55,539.43Z" transform="translate(-52.93 -411.12)"/><path class="cls-2" d="M135.59,544.81a34.57,34.57,0,0,0-3.23,1.65A34.53,34.53,0,0,1,135.59,544.81Z" transform="translate(-52.93 -411.12)"/><path class="cls-2" d="M150.44,558.66h0Z" transform="translate(-52.93 -411.12)"/><path class="cls-2" d="M158.74,559.79l.38.11Z" transform="translate(-52.93 -411.12)"/><path class="cls-2" d="M185,519l-1.1-.61Z" transform="translate(-52.93 -411.12)"/><path class="cls-2" d="M175.69,514.44l-.6-.24Z" transform="translate(-52.93 -411.12)"/><path class="cls-2" d="M187.73,520.6l-1.11-.65Z" transform="translate(-52.93 -411.12)"/><path class="cls-2" d="M101.58,527q-2.16.54-4.31,1Q99.42,527.5,101.58,527Z" transform="translate(-52.93 -411.12)"/><path class="cls-2" d="M155.78,559.15l.53.1Z" transform="translate(-52.93 -411.12)"/><path class="cls-2" d="M138.69,512.54c-.28.13-.56.24-.84.37C138.13,512.78,138.41,512.67,138.69,512.54Z" transform="translate(-52.93 -411.12)"/><path class="cls-2" d="M179.2,516l-.76-.37Z" transform="translate(-52.93 -411.12)"/><path class="cls-2" d="M182.21,517.53l-1-.53Z" transform="translate(-52.93 -411.12)"/><path class="cls-2" d="M134.21,564.64q1.33-.64,2.6-1.31Q135.54,564,134.21,564.64Z" transform="translate(-52.93 -411.12)"/><path class="cls-2" d="M190.39,522.22l-1.07-.66Z" transform="translate(-52.93 -411.12)"/><path class="cls-2" d="M198.71,527.86l-.62-.46Z" transform="translate(-52.93 -411.12)"/><path class="cls-2" d="M195.58,525.64l-.73-.49Z" transform="translate(-52.93 -411.12)"/><path class="cls-2" d="M135.3,514.26c-1.27.74-2.6,1.46-4,2.15C132.7,515.72,134,515,135.3,514.26Z" transform="translate(-52.93 -411.12)"/><path class="cls-2" d="M164.28,561.61l.54.22Z" transform="translate(-52.93 -411.12)"/><path class="cls-2" d="M193,523.9l-1-.63Z" transform="translate(-52.93 -411.12)"/><path class="cls-2" d="M141.45,511.44l-1,.36Z" transform="translate(-52.93 -411.12)"/><path class="cls-2" d="M158.63,509.73l-.83-.1Z" transform="translate(-52.93 -411.12)"/><path class="cls-2" d="M144.15,510.62l-1.07.29Z" transform="translate(-52.93 -411.12)"/><path class="cls-2" d="M137.73,562.85c1.06-.56,2.1-1.14,3.1-1.72C139.83,561.71,138.79,562.28,137.73,562.85Z" transform="translate(-52.93 -411.12)"/><path class="cls-2" d="M155,509.45h0Z" transform="translate(-52.93 -411.12)"/><path class="cls-2" d="M152.29,509.45l-.93.05Z" transform="translate(-52.93 -411.12)"/><path class="cls-2" d="M142.88,560.13l.45-.19Z" transform="translate(-52.93 -411.12)"/><path class="cls-2" d="M161.64,510.17l-1.06-.18Z" transform="translate(-52.93 -411.12)"/><path class="cls-2" d="M145.43,559.27l.36-.08Z" transform="translate(-52.93 -411.12)"/><path class="cls-2" d="M147.79,558.84l.38-.05Z" transform="translate(-52.93 -411.12)"/><path class="cls-2" d="M153.28,558.79h0Z" transform="translate(-52.93 -411.12)"/><path class="cls-2" d="M172.91,513.33l-1-.36Z" transform="translate(-52.93 -411.12)"/><path class="cls-2" d="M170.13,512.34,169,512Z" transform="translate(-52.93 -411.12)"/><path class="cls-2" d="M146.85,510l-1.08.21Z" transform="translate(-52.93 -411.12)"/><path class="cls-2" d="M167.22,562.84l.13.06Z" transform="translate(-52.93 -411.12)"/><path class="cls-2" d="M164.51,510.75l-1.13-.25Z" transform="translate(-52.93 -411.12)"/><path class="cls-2" d="M167.33,511.48l-1.14-.31Z" transform="translate(-52.93 -411.12)"/><path class="cls-2" d="M161.38,560.57l.44.14Z" transform="translate(-52.93 -411.12)"/><path class="cls-2" d="M194.35,545.9l.88.71Z" transform="translate(-52.93 -411.12)"/><path class="cls-2" d="M192.23,544.25l.79.61Z" transform="translate(-52.93 -411.12)"/><path class="cls-2" d="M180.82,570.47l.17.11Z" transform="translate(-52.93 -411.12)"/><path class="cls-2" d="M201.5,529.94l-.94-.71Z" transform="translate(-52.93 -411.12)"/><path class="cls-2" d="M126.21,568.17q1.49-.6,2.92-1.21Q127.7,567.57,126.21,568.17Z" transform="translate(-52.93 -411.12)"/><path class="cls-2" d="M178.14,568.75l.51.32Z" transform="translate(-52.93 -411.12)"/><path class="cls-2" d="M190.11,542.64l.45.34Z" transform="translate(-52.93 -411.12)"/><path class="cls-2" d="M196.44,547.59l.93.77Z" transform="translate(-52.93 -411.12)"/><path class="cls-2" d="M182.81,537.58l.87.56Z" transform="translate(-52.93 -411.12)"/><path class="cls-2" d="M192.58,558q-2.5-1.72-4.94-3.26Q190.09,556.25,192.58,558Z" transform="translate(-52.93 -411.12)"/><path class="cls-2" d="M180.63,536.21l.91.56Z" transform="translate(-52.93 -411.12)"/><path class="cls-2" d="M198.52,549.32l1,.81Z" transform="translate(-52.93 -411.12)"/><path class="cls-2" d="M183.22,572.1l.25.17h0Z" transform="translate(-52.93 -411.12)"/><path class="cls-2" d="M185,539.06l.79.53Z" transform="translate(-52.93 -411.12)"/><path class="cls-2" d="M187.37,540.67l.6.42Z" transform="translate(-52.93 -411.12)"/><path class="cls-2" d="M106.74,525.59q-2.36.66-4.72,1.26Q104.38,526.25,106.74,525.59Z" transform="translate(-52.93 -411.12)"/><path class="cls-2" d="M111.49,524.19c-1.05.32-2.11.63-3.17.94C109.38,524.83,110.44,524.52,111.49,524.19Z" transform="translate(-52.93 -411.12)"/><path class="cls-2" d="M208.67,535.67l-1-.81Z" transform="translate(-52.93 -411.12)"/><path class="cls-2" d="M116.21,522.67c-1,.32-1.91.64-2.87.94C114.3,523.3,115.25,523,116.21,522.67Z" transform="translate(-52.93 -411.12)"/><path class="cls-2" d="M206.37,533.77l-1-.81Z" transform="translate(-52.93 -411.12)"/><path class="cls-2" d="M213,539.43l-.77-.67Z" transform="translate(-52.93 -411.12)"/><path class="cls-2" d="M204,531.87l-1-.78Z" transform="translate(-52.93 -411.12)"/><path class="cls-2" d="M169.85,564.09l.55.28Z" transform="translate(-52.93 -411.12)"/><path class="cls-2" d="M129.94,517.08c-.93.45-1.86.9-2.81,1.33C128.09,518,129,517.54,129.94,517.08Z" transform="translate(-52.93 -411.12)"/><path d="M204,554.11q-2.34,3-4.92,5.64-.81.84-1.67,1.68c-1.49-1.11-3-2.16-4.42-3.17q5,3.45,10.12,7.6l5,4.06c1.61-1.62,3.19-3.3,4.7-5.07.36-.42.69-.86,1-1.29l-4.58-4.46C207.56,557.41,205.79,555.75,204,554.11Z" transform="translate(-52.93 -411.12)"/><path class="cls-2" d="M172.82,565.63l.36.2Z" transform="translate(-52.93 -411.12)"/><path class="cls-2" d="M125.41,519.15c-.89.38-1.79.76-2.7,1.12C123.62,519.91,124.52,519.53,125.41,519.15Z" transform="translate(-52.93 -411.12)"/><path class="cls-2" d="M200.59,551.08l.95.83Z" transform="translate(-52.93 -411.12)"/><path class="cls-2" d="M202.63,552.88l.94.85Z" transform="translate(-52.93 -411.12)"/><path class="cls-2" d="M175.37,567.07l.45.26Z" transform="translate(-52.93 -411.12)"/><path class="cls-2" d="M144.19,542.28c.72-.12,1.43-.23,2.16-.31C145.62,542,144.91,542.16,144.19,542.28Z" transform="translate(-52.93 -411.12)"/><path class="cls-2" d="M130,566.6q1.77-.77,3.45-1.58Q131.73,565.83,130,566.6Z" transform="translate(-52.93 -411.12)"/><path class="cls-2" d="M120.85,521q-1.36.52-2.75,1Q119.49,521.51,120.85,521Z" transform="translate(-52.93 -411.12)"/><path class="cls-2" d="M108.32,525.13l-1.58.46Z" transform="translate(-52.93 -411.12)"/><path class="cls-2" d="M154.67,509.45c-.8,0-1.59,0-2.38,0C153.08,509.42,153.87,509.43,154.67,509.45Z" transform="translate(-52.93 -411.12)"/><path class="cls-2" d="M171.93,513c-.6-.22-1.2-.43-1.8-.63C170.73,512.54,171.33,512.76,171.93,513Z" transform="translate(-52.93 -411.12)"/><path class="cls-2" d="M175.09,514.2c-.72-.3-1.45-.59-2.18-.87C173.64,513.61,174.37,513.9,175.09,514.2Z" transform="translate(-52.93 -411.12)"/><path class="cls-2" d="M183.91,518.43l-1.69-.89Z" transform="translate(-52.93 -411.12)"/><path class="cls-2" d="M178.44,515.67q-1.37-.64-2.76-1.22Q177.07,515,178.44,515.67Z" transform="translate(-52.93 -411.12)"/><path class="cls-2" d="M181.19,517c-.66-.33-1.32-.65-2-1C179.86,516.35,180.53,516.67,181.19,517Z" transform="translate(-52.93 -411.12)"/><path class="cls-2" d="M166.19,511.17l-1.68-.42Z" transform="translate(-52.93 -411.12)"/><path class="cls-2" d="M160.58,510c-.65-.1-1.3-.18-1.95-.25C159.28,509.81,159.93,509.88,160.58,510Z" transform="translate(-52.93 -411.12)"/><path class="cls-2" d="M157.8,509.63c-.92-.09-1.85-.15-2.77-.18C156,509.48,156.88,509.54,157.8,509.63Z" transform="translate(-52.93 -411.12)"/><path class="cls-2" d="M163.37,510.5c-.58-.12-1.16-.23-1.73-.33C162.22,510.27,162.8,510.38,163.37,510.5Z" transform="translate(-52.93 -411.12)"/><path class="cls-2" d="M169,512l-1.7-.51Z" transform="translate(-52.93 -411.12)"/><path class="cls-2" d="M203,531.08l-1.49-1.14Z" transform="translate(-52.93 -411.12)"/><path class="cls-2" d="M205.37,533l-1.38-1.1Z" transform="translate(-52.93 -411.12)"/><path class="cls-2" d="M200.57,529.23l-1.85-1.36Z" transform="translate(-52.93 -411.12)"/><path class="cls-2" d="M207.69,534.86l-1.32-1.09Z" transform="translate(-52.93 -411.12)"/><path class="cls-2" d="M194.85,525.14,193,523.9Z" transform="translate(-52.93 -411.12)"/><path class="cls-2" d="M198.09,527.41q-1.24-.9-2.51-1.77Q196.84,526.51,198.09,527.41Z" transform="translate(-52.93 -411.12)"/><path class="cls-2" d="M192,523.27l-1.64-1Z" transform="translate(-52.93 -411.12)"/><path class="cls-2" d="M189.32,521.56l-1.59-1Z" transform="translate(-52.93 -411.12)"/><path class="cls-2" d="M186.62,519.95,185,519Z" transform="translate(-52.93 -411.12)"/><path class="cls-2" d="M118.1,522l-1.9.66Z" transform="translate(-52.93 -411.12)"/><path class="cls-2" d="M102,526.85l-.43.11Z" transform="translate(-52.93 -411.12)"/><path class="cls-2" d="M79.34,531.51l-1.59.26Z" transform="translate(-52.93 -411.12)"/><path class="cls-2" d="M83.61,530.78l-1.77.31Z" transform="translate(-52.93 -411.12)"/><path class="cls-2" d="M97.28,528l-1.67.37Z" transform="translate(-52.93 -411.12)"/><path class="cls-2" d="M148.51,509.77c-.56.07-1.11.15-1.66.25C147.4,509.93,148,509.84,148.51,509.77Z" transform="translate(-52.93 -411.12)"/><path class="cls-2" d="M88,530l-1.86.35Z" transform="translate(-52.93 -411.12)"/><path class="cls-2" d="M208.67,535.67l1.31,1.11Z" transform="translate(-52.93 -411.12)"/><path class="cls-2" d="M75.18,532.17l-1.23.19Z" transform="translate(-52.93 -411.12)"/><path d="M70.49,532.85a77.67,77.67,0,0,1-4-15.47c16.58-1.68,55.89-7.08,81.42-22,14.78-8.63,39.08,7.13,55.9,21.46,5.38,4.59,10,9,13.29,12.47a77.13,77.13,0,0,1-4,10.18l-.09-.08c2.93,2.6,5.65,5.14,8.09,7.53l2.39,2.33a90.79,90.79,0,1,0-166-14.88l6.71-.77C66,533.43,68.1,533.17,70.49,532.85Zm16.88-80.58A77.64,77.64,0,0,1,210,466.65c-19.21-14.76-45.9-29-67.33-16.46-19.62,11.46-50,16.74-67.69,19A78,78,0,0,1,87.37,452.27ZM68,487c15.37-1.46,56.7-6.69,83.21-22.16,14.78-8.63,39.09,7.15,55.91,21.48,5.33,4.54,9.91,8.94,13.19,12.37a77.75,77.75,0,0,1,.29,10.34c-2-1.87-4.24-3.87-6.66-5.93-19.23-16.38-50.26-36.52-74.58-22.31-22,12.85-57.6,17.93-73.52,19.63A77.31,77.31,0,0,1,68,487Z" transform="translate(-52.93 -411.12)"/><path class="cls-2" d="M149.56,509.64c.6-.06,1.2-.1,1.8-.13C150.76,509.54,150.16,509.58,149.56,509.64Z" transform="translate(-52.93 -411.12)"/><path class="cls-2" d="M92.6,529l-1.85.38Z" transform="translate(-52.93 -411.12)"/><path class="cls-2" d="M143.08,510.91c-.55.16-1.09.34-1.63.53C142,511.26,142.53,511.07,143.08,510.91Z" transform="translate(-52.93 -411.12)"/><path class="cls-2" d="M137.85,512.92c-.86.41-1.7.85-2.54,1.34C136.14,513.77,137,513.33,137.85,512.92Z" transform="translate(-52.93 -411.12)"/><path class="cls-2" d="M140.44,511.8c-.59.23-1.17.48-1.75.74C139.27,512.28,139.85,512,140.44,511.8Z" transform="translate(-52.93 -411.12)"/><path class="cls-2" d="M113.33,523.61l-1.84.58Z" transform="translate(-52.93 -411.12)"/><path class="cls-2" d="M145.76,510.24q-.81.17-1.61.38Q145,510.41,145.76,510.24Z" transform="translate(-52.93 -411.12)"/><path class="cls-2" d="M212.26,538.76l-1.38-1.2Z" transform="translate(-52.93 -411.12)"/><path class="cls-2" d="M131.34,516.41c-.46.23-.93.45-1.4.67C130.41,516.86,130.88,516.64,131.34,516.41Z" transform="translate(-52.93 -411.12)"/><path class="cls-2" d="M122.7,520.27l-1.85.72Z" transform="translate(-52.93 -411.12)"/><path class="cls-2" d="M127.13,518.41l-1.72.74Z" transform="translate(-52.93 -411.12)"/><path class="cls-2" d="M166.44,529.1l1.5.57Z" transform="translate(-52.93 -411.12)"/><path class="cls-2" d="M133.66,534l1.6-.72Z" transform="translate(-52.93 -411.12)"/><path class="cls-2" d="M145.82,527.92c.34-.14.68-.28,1-.4C146.5,527.64,146.16,527.78,145.82,527.92Z" transform="translate(-52.93 -411.12)"/><path class="cls-2" d="M147.48,527.33c.32-.1.64-.19,1-.27C148.12,527.13,147.8,527.23,147.48,527.33Z" transform="translate(-52.93 -411.12)"/><path class="cls-2" d="M143.85,528.89c.48-.28,1-.53,1.47-.76C144.82,528.36,144.32,528.61,143.85,528.89Z" transform="translate(-52.93 -411.12)"/><path class="cls-2" d="M138.3,531.86l1.37-.68Z" transform="translate(-52.93 -411.12)"/><path class="cls-2" d="M149.14,526.9c.32-.07.63-.13,1-.18C149.77,526.77,149.45,526.84,149.14,526.9Z" transform="translate(-52.93 -411.12)"/><path class="cls-2" d="M156.18,526.59l1.08.13Z" transform="translate(-52.93 -411.12)"/><path class="cls-2" d="M154.35,526.48l1,.05Z" transform="translate(-52.93 -411.12)"/><path class="cls-2" d="M152.57,526.49l1,0Z" transform="translate(-52.93 -411.12)"/><path class="cls-2" d="M150.83,526.63l1-.1Z" transform="translate(-52.93 -411.12)"/><path class="cls-2" d="M129,536l1.53-.63Z" transform="translate(-52.93 -411.12)"/><path class="cls-2" d="M103,544.07l1.17-.29Z" transform="translate(-52.93 -411.12)"/><path class="cls-2" d="M97,545.44l1.29-.28Z" transform="translate(-52.93 -411.12)"/><path class="cls-2" d="M91.8,546.51l1.68-.33Z" transform="translate(-52.93 -411.12)"/><path class="cls-2" d="M87.11,547.39l1.63-.3Z" transform="translate(-52.93 -411.12)"/><path class="cls-2" d="M158.05,526.83l1.14.2Z" transform="translate(-52.93 -411.12)"/><path class="cls-2" d="M118.09,539.89l1.46-.46Z" transform="translate(-52.93 -411.12)"/><path class="cls-2" d="M107.92,542.84l1.71-.46Z" transform="translate(-52.93 -411.12)"/><path class="cls-2" d="M204,554.1l-.42-.38.42.38Z" transform="translate(-52.93 -411.12)"/><path class="cls-2" d="M112.89,541.46l1.76-.51Z" transform="translate(-52.93 -411.12)"/><path class="cls-2" d="M124.34,537.79l.73-.27Z" transform="translate(-52.93 -411.12)"/><path class="cls-2" d="M193,544.86l1.33,1Z" transform="translate(-52.93 -411.12)"/><path class="cls-2" d="M188,541.09l2.13,1.55Z" transform="translate(-52.93 -411.12)"/><path class="cls-2" d="M190.55,543l1.68,1.27Z" transform="translate(-52.93 -411.12)"/><path class="cls-2" d="M183.68,538.15l1.36.91Z" transform="translate(-52.93 -411.12)"/><path class="cls-2" d="M185.82,539.59l1.54,1.08Z" transform="translate(-52.93 -411.12)"/><path class="cls-2" d="M195.23,546.61l1.21,1Z" transform="translate(-52.93 -411.12)"/><path class="cls-2" d="M201.53,551.91l1.09,1Z" transform="translate(-52.93 -411.12)"/><path class="cls-2" d="M199.48,550.13l1.11,1Z" transform="translate(-52.93 -411.12)"/><path class="cls-2" d="M197.38,548.36l1.15,1Z" transform="translate(-52.93 -411.12)"/><path class="cls-2" d="M181.53,536.77l1.27.81Z" transform="translate(-52.93 -411.12)"/><path class="cls-2" d="M168.7,530l1.3.55Z" transform="translate(-52.93 -411.12)"/><path class="cls-2" d="M179.39,535.45l1.24.75Z" transform="translate(-52.93 -411.12)"/><path class="cls-2" d="M82.67,548.16l1.21-.21Z" transform="translate(-52.93 -411.12)"/><path class="cls-2" d="M161.9,527.64c.53.14,1.07.3,1.61.46C163,527.94,162.44,527.79,161.9,527.64Z" transform="translate(-52.93 -411.12)"/><path class="cls-2" d="M160,527.18l1.26.3Z" transform="translate(-52.93 -411.12)"/><path class="cls-2" d="M163.88,528.22q1,.31,2,.68Q164.88,528.53,163.88,528.22Z" transform="translate(-52.93 -411.12)"/><path class="cls-2" d="M177.24,534.21l1.22.7Z" transform="translate(-52.93 -411.12)"/><path class="cls-2" d="M175.11,533l1.22.66Z" transform="translate(-52.93 -411.12)"/><path class="cls-2" d="M170.85,530.93l1.24.58Z" transform="translate(-52.93 -411.12)"/><path class="cls-2" d="M173,531.94l1.22.62Z" transform="translate(-52.93 -411.12)"/></g><g id="Layer_1" data-name="Layer 1"><path d="M359.56,554.82h-8.37L286,453.56V554.82h-7.85V441.19h8.54l65,101.26V441.19h7.85Z" transform="translate(-52.93 -411.12)"/><path d="M446.62,516.4H387.21c.34,19.7,7.68,33.37,29.71,33.37,9.22,0,16.39-2.44,22-8.3l5,4.23c-6.83,7.16-15.19,10.58-27,10.58-26.8,0-37.22-16.93-37.22-40.53,0-22.63,9.73-40.37,35.51-40.37,21.85,0,31.41,15.63,31.41,35.81Zm-7-5.54c-.34-16-6.32-29-24.58-29-18.44,0-26.46,11.4-27.83,29Z" transform="translate(-52.93 -411.12)"/><path d="M576,476.68l-26,78.14h-7.85L516.78,486l-25.27,68.86h-8L458,476.68h7.68l21.85,69.19L513,476.68h7.68L546,546l22.54-69.35Z" transform="translate(-52.93 -411.12)"/><path d="M609.16,555.06H592V441.19h17.19Z" transform="translate(-52.93 -411.12)"/><path d="M702.3,544.08q-12.28,12.2-30.69,12.2t-30.69-12.2a42.42,42.42,0,0,1,0-59.7q12.28-12.2,30.69-12.2t30.69,12.2a42.42,42.42,0,0,1,0,59.7Zm-49.18-10.59q7.29,7.45,18.49,7.44t18.49-7.44q7.29-7.44,7.29-19.26T690.1,495q-7.29-7.44-18.49-7.44T653.12,495q-7.29,7.44-7.29,19.26T653.12,533.49Z" transform="translate(-52.93 -411.12)"/><path d="M809.57,473.42v71.21q0,21.64-11.74,32.46T767.68,587.9a53.09,53.09,0,0,1-33.3-11.51l8.13-13q12,9.05,24.17,9.05T786,566.11q7.14-6.29,7.14-20.1V535.57a29.26,29.26,0,0,1-11,11.51,30.47,30.47,0,0,1-16,4.3q-16.27,0-26.7-11.36T729,511.78q0-16.88,10.44-28.24t26.63-11.36q16.19,0,26.32,13.35V473.42Zm-63.69,37.67a25.85,25.85,0,0,0,6.22,17.34q6.21,7.29,16.73,7.29t17-7.06q6.52-7.06,6.52-17.57a25.58,25.58,0,0,0-6.6-17.8,21.93,21.93,0,0,0-17-7.29q-10.44,0-16.65,7.52A26.75,26.75,0,0,0,745.89,511.09Z" transform="translate(-52.93 -411.12)"/><path d="M835.51,457.15a10.75,10.75,0,1,1,7.67,3.22A10.48,10.48,0,0,1,835.51,457.15Zm16.11,97.91H834.43V473.42h17.19Z" transform="translate(-52.93 -411.12)"/><path d="M912.69,556.28a41.22,41.22,0,0,1-29.31-11.59q-12.28-11.58-12.28-30.31t12.81-30.46q12.81-11.74,31.23-11.74a42.37,42.37,0,0,1,31.15,12.74l-10.13,12.43q-10.59-9.21-21.33-9.21a26.91,26.91,0,0,0-18.65,7.14q-7.91,7.14-7.9,18.42a26.73,26.73,0,0,0,27.09,26.93q11.43,0,21.56-10.44l10.13,11Q932.18,556.29,912.69,556.28Z" transform="translate(-52.93 -411.12)"/></g></svg>